<?xml version="1.0" encoding="UTF-8" standalone="no"?>
<svg
   width="100%"
   height="100%"
   viewBox="0 0 2048 600"
   version="1.1"
   xml:space="preserve"
   style="fill-rule:evenodd;clip-rule:evenodd;stroke-linejoin:round;stroke-miterlimit:2;"
   id="svg132"
   sodipodi:docname="OHCHR.svg"
   inkscape:version="1.1.1 (3bf5ae0d25, 2021-09-20)"
   xmlns:inkscape="http://www.inkscape.org/namespaces/inkscape"
   xmlns:sodipodi="http://sodipodi.sourceforge.net/DTD/sodipodi-0.dtd"
   xmlns="http://www.w3.org/2000/svg"
   xmlns:svg="http://www.w3.org/2000/svg"
   xmlns:serif="http://www.serif.com/"><defs
   id="defs136" /><sodipodi:namedview
   id="namedview134"
   pagecolor="#ffffff"
   bordercolor="#666666"
   borderopacity="1.0"
   inkscape:pageshadow="2"
   inkscape:pageopacity="0.0"
   inkscape:pagecheckerboard="0"
   showgrid="false"
   inkscape:zoom="0.57958984"
   inkscape:cx="1054.1938"
   inkscape:cy="291.58551"
   inkscape:window-width="1920"
   inkscape:window-height="1007"
   inkscape:window-x="-9"
   inkscape:window-y="-9"
   inkscape:window-maximized="1"
   inkscape:current-layer="svg132" />
    <g
   id="United_Nations_Human_Rights_Council_Logo.svg"
   transform="matrix(2.29717,0,0,2.29717,290.437,275.526)">
        <g
   transform="matrix(1,0,0,1,-125,-125)"
   id="g20">
            <g
   id="_-0a6aaeff"
   serif:id="#0a6aaeff">
                <path
   id="path5"
   d="M138.033,8.421C138.963,9.133 139.446,10.217 140.067,11.171C143.479,16.671 146.879,22.175 150.288,27.679C152.758,31.908 155.679,35.846 158.442,39.883C167.125,52.175 175.05,64.975 183.392,77.496C186.092,82.579 188.921,87.596 191.525,92.729C193.004,96.529 194.704,100.263 195.85,104.179C196.883,108.842 198.738,113.333 199.071,118.133C199.7,122.05 199.346,126.025 199.438,129.971C199.596,134.871 198.95,139.746 198.529,144.617C197.833,147.533 197.233,150.475 196.425,153.367C195.563,155.946 194.429,158.429 193.458,160.971C192.396,163.892 190.742,166.546 189.3,169.292C187.308,173.258 184.496,176.725 182.038,180.4C180.075,182.321 178.425,184.529 176.392,186.387C173.792,189.242 170.567,191.4 167.546,193.771C164.288,195.825 160.958,197.775 157.646,199.738C154.938,200.95 152.15,201.979 149.396,203.079C145.454,204.167 141.45,205.025 137.475,205.971C133.221,206.492 128.996,207.5 124.7,207.496C125.679,206.425 126.496,205.217 127.558,204.221C129.475,202.563 130.004,199.958 131.167,197.804C131.938,196.079 133.175,194.479 133.279,192.529C133.579,189.325 134.388,186.163 134.221,182.925C134.1,179.833 134.638,176.629 133.446,173.675C132.675,169.4 130.567,165.575 128.846,161.642C123.938,153.408 118.725,145.358 113.642,137.233C110.8,132.15 107.892,127.104 105.146,121.971C103.738,118.433 102.392,114.871 101.083,111.3C98.85,102.563 96.879,93.629 97.113,84.558C97.558,79.921 98.125,75.296 98.692,70.671C99.546,65.271 100.488,59.887 101.363,54.492C101.454,53.808 101.688,53.154 101.979,52.529C102.363,58.067 103.071,63.592 104.438,68.979C105.863,73.521 107.667,77.938 109.417,82.367C110.979,85.488 112.175,88.808 114.113,91.733C117.763,96.8 121.133,102.096 125.179,106.867C126.471,108.108 127.542,109.542 128.792,110.825C132.646,115.425 137.371,119.221 141.217,123.833C142.6,125.183 144.004,126.542 145.092,128.158C146.808,130.896 148.658,133.546 150.433,136.25C152.725,140.279 154.775,144.438 156.817,148.596C158.3,151.746 159.279,155.192 161.371,158.021C161.671,154.696 160.858,151.429 160.546,148.138C159.938,142.838 158.137,137.8 156.379,132.796C155.621,130.729 154.5,128.829 153.567,126.842C151.458,122 148.913,117.363 146.475,112.679C144.733,108.55 142.45,104.675 140.708,100.55C138.721,96.771 137.079,92.838 135.113,89.05C132.917,83.946 130.483,78.938 128.55,73.725C127.517,70.646 126.175,67.671 125.296,64.542C124.5,60.5 123.521,56.496 122.771,52.446C121.75,44.7 120.4,36.929 120.829,29.083C121.45,30.275 121.775,31.579 122.079,32.879C122.662,35.392 123.608,37.8 124.396,40.254C124.996,41.979 125.313,43.808 126.158,45.442C128.1,49.225 129.879,53.088 131.983,56.783C132.779,58.763 134.258,60.321 135.429,62.075C138.458,66.179 141.158,70.508 144.033,74.717C149.283,81.813 155.075,88.508 160.008,95.833C162.788,99.629 165.225,103.654 167.763,107.613C169.263,110.146 171.158,112.471 172.2,115.25C173.758,118.554 175.583,121.729 176.929,125.129C178.65,129.446 180.5,133.729 181.721,138.221C182.292,140.254 182.863,142.288 183.521,144.296C183.621,141.579 184.696,138.988 184.542,136.254C184.463,131.671 184.713,127.075 184.283,122.5C183.35,114.733 180.167,107.496 177.1,100.375C174.913,94.958 171.858,89.946 169.567,84.579C165.092,75.75 161.233,66.633 156.771,57.8C154.617,53.95 152.654,49.996 150.496,46.146C149.308,43.754 148.404,41.238 147.325,38.796C145.925,35.246 144.238,31.804 143.175,28.129C141.833,23.388 139.963,18.796 139.033,13.946C138.675,12.108 137.971,10.321 138.033,8.421Z"
   style="fill:#009edb;fill-rule:nonzero;fill-opacity:1" />
                <path
   id="path7"
   d="M187.738,67.667C193.046,69.633 198.65,71.004 203.479,74.058C208.608,77.308 212.325,82.438 214.492,88.05C215.546,90.513 215.967,93.208 217.271,95.567C209.6,90.55 202.688,84.346 197.004,77.146C195.946,75.85 195.117,74.363 193.858,73.238C191.813,71.388 189.758,69.546 187.738,67.667Z"
   style="fill:#009edb;fill-rule:nonzero;fill-opacity:1" />
                <path
   id="path9"
   d="M46.75,77.179C52,72.913 58.588,70.913 64.875,68.721C59.063,73.325 54.688,79.375 50.112,85.138C46.058,89.754 40.704,92.917 35.988,96.779C38.163,92.688 38.563,87.879 40.996,83.908C42.642,81.454 44.404,79.017 46.75,77.179Z"
   style="fill:#009edb;fill-rule:nonzero;fill-opacity:1" />
                <path
   id="path11"
   d="M210.575,77.567C215.588,78.592 219.996,81.683 223.183,85.621C225.475,88.45 227.179,91.821 227.713,95.45C228.858,102.733 226.629,110.154 228.267,117.404C224.858,111.5 218.979,107.758 213.558,103.912C210.054,101.375 206.387,98.854 203.858,95.271C201.529,92.013 200.254,88.142 199.463,84.25C200.6,86.254 201.975,88.138 203.746,89.633C207.833,93.171 212.854,95.392 217.088,98.729C218.646,99.942 219.979,101.408 221.35,102.817C222.804,104.317 223.358,106.433 224.767,107.958C224.358,106.688 223.704,105.521 223.213,104.287C221.25,99.529 220.121,94.492 218.667,89.567C218,87.333 217.396,85.029 216.083,83.071C214.696,80.838 212.729,79.042 210.575,77.567Z"
   style="fill:#009edb;fill-rule:nonzero;fill-opacity:1" />
                <path
   id="path13"
   d="M31.313,85.5C34.213,82.304 38.025,79.912 42.242,78.929C39.838,80.525 37.775,82.667 36.496,85.275C34.025,90.204 33.675,95.825 31.892,100.988C31.008,103.829 29.546,106.471 28.921,109.392C30.763,105.963 33.021,102.704 36.054,100.204C40.296,96.733 45.379,94.417 49.442,90.708C51.142,89.15 52.546,87.275 53.45,85.146C53.571,85.208 53.817,85.329 53.942,85.388L53.362,85.558C53.342,90.537 50.638,95.063 47.425,98.688C43.992,102.538 39.808,105.613 35.5,108.408C31.783,111.233 28.196,114.442 25.871,118.55C25.65,115.838 26.292,113.133 26.013,110.421C25.446,104.904 24.938,99.213 26.425,93.788C27.263,90.646 28.967,87.758 31.313,85.5Z"
   style="fill:#009edb;fill-rule:nonzero;fill-opacity:1" />
                <path
   id="path15"
   d="M228.658,91.096C230.167,92.021 231.121,93.542 232.188,94.908C239.421,103.6 241.396,116.317 237.262,126.821C235.7,130.263 234.188,133.75 233.238,137.421C232.683,139.25 232.438,141.15 231.904,142.988C230.796,136.492 226.7,131.129 222.538,126.246C219.163,122.175 215.529,118.196 213.267,113.363C211.846,110.238 210.688,106.983 210,103.617C214.237,110.108 221.654,113.421 226.583,119.263C228.125,121.063 229.163,123.225 230.012,125.425C230.717,127.358 230.646,129.512 231.587,131.367C231.688,130.071 231.413,128.796 231.279,127.517C230.463,119.892 230.892,112.188 231.992,104.617C232.212,99.933 231.454,94.979 228.658,91.096Z"
   style="fill:#009edb;fill-rule:nonzero;fill-opacity:1" />
                <path
   id="path17"
   d="M21.65,95.829C22.583,94.65 23.454,93.396 24.625,92.438C23.304,94.625 22.125,96.95 21.779,99.517C20.504,107.783 24.008,115.913 23.079,124.192C22.888,127.013 22.479,129.829 22.488,132.658C23.304,131.775 23.188,130.479 23.471,129.383C24.042,125.808 25.892,122.579 28.208,119.85C31.358,116.183 35.171,113.183 38.908,110.146C40.704,108.696 42.208,106.887 43.292,104.85C42.721,109.046 41.246,113.083 39.329,116.846C35.346,123.646 29.517,129.154 25.587,135.992C24.079,138.575 23.004,141.4 22.408,144.329C21.55,135.279 15.2,127.804 14.525,118.721C14.421,115.304 14.396,111.829 15.242,108.492C16.363,103.846 18.738,99.592 21.65,95.829Z"
   style="fill:#009edb;fill-rule:nonzero;fill-opacity:1" />
                <path
   id="path19"
   d="M60.633,101.833C61.238,100.204 61.767,98.55 62.492,96.971C62.746,99.283 62.083,101.542 61.725,103.804C60.554,110.454 60.329,117.379 61.958,123.975C63.108,127.846 64.496,131.642 66.008,135.388C66.804,138.263 68.908,140.458 70.325,143.021C71.667,145.467 73.788,147.3 75.546,149.425C77.992,152.179 81.113,154.154 84.004,156.387C87.042,158.854 90.787,160.163 94.163,162.071C96.025,163.208 98.108,163.908 100.1,164.788C101.321,164.858 100.938,163.421 100.488,162.783C97.371,157.788 94.746,152.504 91.654,147.492C91.079,146.538 90.471,145.592 90.054,144.55C88.471,140.075 86.988,135.554 85.967,130.912C85.063,123.287 85.446,115.6 85.371,107.942C85.433,106.342 85.179,104.713 85.571,103.146C86.471,107.325 86.396,111.679 87.463,115.842C89.221,123.938 92.033,131.808 95.896,139.138C98.938,143.792 102.092,148.388 105.683,152.642C108.742,155.692 111.788,158.758 114.854,161.804C117.629,163.883 119.613,166.763 121.946,169.288C124.654,174.779 125.971,180.979 125.679,187.108C125.1,189.763 124.604,192.483 123.154,194.838C122.575,196.475 121.296,197.633 120.1,198.825C118.538,201.1 115.967,202.308 114.017,204.204C113.392,203.063 113.404,201.704 112.783,200.567C112.058,199.013 110.829,197.792 109.658,196.579C106.3,194.742 102.933,192.896 99.408,191.387C93.396,187.913 87.15,184.763 81.692,180.425C78.963,178.154 75.992,176.15 73.608,173.496C72.358,172.054 70.617,171.125 69.496,169.563C67.325,166.763 64.867,164.171 63,161.146C61.663,158.867 59.929,156.796 59.017,154.292C57.496,150.688 55.425,147.217 54.908,143.283C53.808,138.521 54.117,133.596 54.067,128.746C53.829,124.754 55.275,120.95 55.904,117.054C56.792,111.783 59.038,106.9 60.633,101.833Z"
   style="fill:#009edb;fill-rule:nonzero;fill-opacity:1" />
                <path
   id="path21"
   d="M241.8,118.525C247.271,129.596 245.763,143.292 239.588,153.758C235.204,159.508 229.975,164.579 225.754,170.463C226.158,166.033 226.704,161.408 225.225,157.113C221.875,148.208 218.917,139.067 217.746,129.588C217.417,127.613 217.529,125.613 217.65,123.629C219.75,131.621 226.425,137.242 229.442,144.804C230.742,147.904 230.958,151.317 230.746,154.638C230.567,156.667 229.783,158.571 229.492,160.579C229.904,160.196 230.304,159.775 230.383,159.192C231.721,154.442 232.571,149.538 234.429,144.946C236.867,139.317 240.2,134.004 241.563,127.954C242.296,124.867 242.325,121.646 241.8,118.525Z"
   style="fill:#009edb;fill-rule:nonzero;fill-opacity:1" />
                <path
   id="path23"
   d="M12.254,119.971C11.654,123.162 11.7,126.475 12.558,129.613C14.458,136.833 19.183,142.896 21.317,150.025C22.467,153.567 22.813,157.329 24.204,160.796C24.379,161.254 24.663,161.642 25.042,161.963C24.242,159.163 23.421,156.308 23.646,153.358C24.013,145.838 28.171,139.233 32.45,133.3C34.338,130.821 35.396,127.858 36.313,124.917C36.9,130.017 35.638,135.067 34.854,140.071C33.329,146.879 30.846,153.417 28.829,160.083C27.758,163.908 28.258,167.904 28.729,171.775C27.454,170.492 26.65,168.842 25.45,167.496C21.054,162.029 15.275,157.496 12.396,150.946C9.879,144.192 8.404,136.85 9.413,129.642C10.075,126.35 10.8,123.017 12.254,119.971Z"
   style="fill:#009edb;fill-rule:nonzero;fill-opacity:1" />
                <path
   id="path25"
   d="M219.458,147.85C218.446,156.65 223.258,164.983 222.013,173.771C221.471,178.071 219.467,181.979 217.113,185.546C218.05,185.092 218.596,184.171 219.237,183.396C222.554,179.225 225.588,174.788 229.475,171.104C234.229,166.846 239.304,162.688 242.554,157.096C243.929,154.8 244.725,152.221 245.183,149.6C246.038,155.217 245.267,161.063 242.879,166.225C239.354,173.979 232.983,180.1 225.892,184.646C220,188.179 213.975,191.504 208.246,195.304C209.258,193.258 210.538,191.342 211.254,189.163C215.433,177.933 213.496,165.558 217.008,154.179C217.658,152.004 218.658,149.967 219.458,147.85Z"
   style="fill:#009edb;fill-rule:nonzero;fill-opacity:1" />
                <path
   id="path27"
   d="M35.038,154.167C35.196,152.604 35.054,151.029 35.088,149.463C40.688,161.204 39.267,174.592 42.167,186.996C42.858,190.363 44.958,193.167 46.35,196.246C37.163,190.663 27.225,186.029 19.3,178.621C13.996,173.7 10.108,167.038 9.288,159.783C8.983,156.929 8.958,154.033 9.342,151.183C9.504,154.558 11.008,157.704 12.958,160.408C18.388,167.825 26.646,172.617 31.921,180.175C33.629,182.396 35.138,184.85 37.375,186.604C36.958,185.729 36.417,184.929 35.871,184.138C33.038,179.713 31.863,174.333 32.292,169.121C32.642,164.038 34.583,159.233 35.038,154.167Z"
   style="fill:#009edb;fill-rule:nonzero;fill-opacity:1" />
                <path
   id="path29"
   d="M205.958,176.383C207.829,173.992 209.638,171.533 211.792,169.392C207.867,176.9 208.658,185.733 205.692,193.546C203.604,198.954 199.458,203.213 195.117,206.9C197.646,206.217 199.35,204.125 201.454,202.717C208.475,197.721 216.8,195.137 224.329,191.058C229.854,188.158 234.9,183.917 237.725,178.258C236.7,184.75 232.971,190.479 228.454,195.113C222.863,200.771 215.938,205.129 208.375,207.604C200.804,209.738 192.842,210.096 185.308,212.413C190.058,208.725 193.338,203.496 195.517,197.958C198.5,190.558 200.583,182.521 205.958,176.383Z"
   style="fill:#009edb;fill-rule:nonzero;fill-opacity:1" />
                <path
   id="path31"
   d="M42.533,170.508C46.938,175.321 51.225,180.371 54.129,186.258C57.146,192.871 58.854,200.129 63.004,206.196C64.767,208.829 67.038,211.083 69.542,213.008C60.104,210.279 49.9,210.696 40.817,206.683C32.713,202.708 25.275,196.9 20.483,189.154C18.721,186.288 17.408,183.133 16.75,179.829C18.554,183.175 21.008,186.188 24.075,188.454C32.754,195.046 43.925,197.113 52.713,203.533C54.908,205.2 57.208,206.783 59.796,207.783C57.617,205.771 55.175,204.025 53.271,201.729C51.538,199.6 49.95,197.308 48.963,194.729C45.888,186.908 46.579,178.008 42.533,170.508Z"
   style="fill:#009edb;fill-rule:nonzero;fill-opacity:1" />
                <path
   id="path33"
   d="M173.238,209.867C180.417,203.704 187.175,196.9 195.346,192.025C190.963,197.242 189.258,204.175 184.671,209.25C182.5,211.7 179.617,213.388 176.625,214.638C174.454,215.479 172.129,215.838 169.983,216.75C172.383,216.767 174.75,216.283 177.104,215.846C186.488,214.092 196.15,214.604 205.496,212.592C210.942,211.442 216.2,208.975 220.071,204.908C216.871,211.008 211.183,215.408 205.15,218.496C198.721,221.788 191.387,223.2 184.192,222.579C174.283,221.879 164.792,218.608 154.942,217.496C161.413,216.104 168.113,214.283 173.238,209.867Z"
   style="fill:#009edb;fill-rule:nonzero;fill-opacity:1" />
                <path
   id="path35"
   d="M59.246,192.875C66.988,197.512 73.596,203.713 80.446,209.525C85.892,214.342 93.05,216.538 100.067,217.842C98.329,218.288 96.517,218.283 94.758,218.608C85.617,220.592 76.508,223.346 67.071,223.342C59.567,223.417 52.075,221.225 45.754,217.192C41.333,214.383 37.367,210.713 34.688,206.179C37.879,209.217 41.788,211.467 46.033,212.658C56.279,215.675 67.125,214.517 77.558,216.354C80.054,216.688 82.521,217.517 85.067,217.271C83.65,216.6 82.092,216.371 80.579,216.017C77.025,215.025 73.583,213.35 70.988,210.679C65.9,205.571 63.75,198.417 59.246,192.875Z"
   style="fill:#009edb;fill-rule:nonzero;fill-opacity:1" />
                <path
   id="path37"
   d="M89.583,223.75C96.675,220.962 103.967,218.329 111.621,217.708C115.871,217.308 120.158,217.688 124.338,218.504C125.646,218.8 126.929,219.442 128.304,219.304C131.183,218.021 134.375,217.792 137.479,217.546C146.196,217.038 155.008,218.758 162.925,222.425C168.129,224.179 173.188,226.604 178.696,227.267C186.221,228.238 194.154,227.088 200.771,223.246C195.483,228.963 188.108,232.575 180.463,233.821C169.988,235.367 159.417,231.683 150.771,225.921C147.296,223.888 144.033,221.129 139.933,220.513C137.471,220.304 134.963,220.363 132.533,220.871C142.167,224.933 151.129,230.542 159.021,237.392C157.542,238.838 155.879,240.071 154.217,241.296C146.488,233.892 138.188,226.737 128.317,222.358C126.404,222.238 124.638,223.442 122.925,224.213C114.808,228.758 107.208,234.429 101.196,241.575C99.517,240.329 97.842,239.083 96.158,237.842C102.717,231.913 110.058,226.833 118.021,222.979C119.529,222.188 121.154,221.633 122.633,220.779C117.996,219.371 113.063,220.779 109.05,223.233C103.175,226.833 97.483,230.983 90.813,232.996C83.467,235.3 75.317,235.533 68.071,232.738C63.029,230.883 58.033,228.3 54.488,224.171C61.796,228.308 70.654,229.087 78.8,227.463C82.563,226.767 86.025,225.088 89.583,223.75Z"
   style="fill:#009edb;fill-rule:nonzero;fill-opacity:1" />
            </g>
        </g>
    </g>
    <g
   transform="matrix(7.53433,0,0,7.53433,-4253.16,-2137.83)"
   id="g50">
        <path
   d="M655.613,298.956L656.878,298.956L656.878,307.886C656.878,310.331 656.241,312.218 654.968,313.546C653.695,314.874 652.046,315.538 650.023,315.538C648.007,315.538 646.363,314.882 645.089,313.569C643.816,312.257 643.179,310.46 643.179,308.179L643.179,298.956L644.456,298.956L644.456,308.132C644.456,310.085 644.974,311.612 646.009,312.714C647.044,313.815 648.382,314.366 650.023,314.366C651.679,314.366 653.025,313.81 654.06,312.696C655.095,311.583 655.613,310.003 655.613,307.956L655.613,298.956Z"
   style="fill:#009edb;fill-rule:nonzero;fill-opacity:1"
   id="path24" />
        <path
   d="M675.03,298.956L675.03,315.327L673.976,315.327L661.542,301.019L661.542,315.327L660.277,315.327L660.277,298.956L661.355,298.956L673.765,313.265L673.765,298.956L675.03,298.956Z"
   style="fill:#009edb;fill-rule:nonzero;fill-opacity:1"
   id="path26" />
        <rect
   x="678.78"
   y="298.956"
   width="1.266"
   height="16.371"
   style="fill:#009edb;fill-rule:nonzero;fill-opacity:1"
   id="rect28" />
        <path
   d="M695.55,298.956L695.55,300.011L689.409,300.011L689.409,315.327L688.132,315.327L688.132,300.011L681.991,300.011L681.991,298.956L695.55,298.956Z"
   style="fill:#009edb;fill-rule:nonzero;fill-opacity:1"
   id="path30" />
        <path
   d="M706.507,298.956L706.507,300.011L698.843,300.011L698.843,306.562L706.308,306.562L706.308,307.628L698.843,307.628L698.843,314.273L706.695,314.273L706.695,315.327L697.577,315.327L697.577,298.956L706.507,298.956Z"
   style="fill:#009edb;fill-rule:nonzero;fill-opacity:1"
   id="path32" />
        <path
   d="M709.32,298.956L715.05,298.956C717.948,298.956 720.161,299.718 721.689,301.241C723.216,302.765 723.98,304.733 723.98,307.148C723.98,309.515 723.224,311.47 721.712,313.013C720.2,314.556 718.054,315.327 715.273,315.327L709.32,315.327L709.32,298.956ZM710.585,300.011L710.585,314.273L715.202,314.273C717.32,314.273 719.083,313.622 720.493,312.321C721.904,311.021 722.609,309.296 722.609,307.148C722.609,305.046 721.913,303.331 720.523,302.003C719.132,300.675 717.331,300.011 715.12,300.011L710.585,300.011Z"
   style="fill:#009edb;fill-rule:nonzero;fill-opacity:1"
   id="path34" />
        <path
   d="M748.484,298.956L748.484,315.327L747.429,315.327L734.995,301.019L734.995,315.327L733.73,315.327L733.73,298.956L734.808,298.956L747.218,313.265L747.218,298.956L748.484,298.956Z"
   style="fill:#009edb;fill-rule:nonzero;fill-opacity:1"
   id="path36" />
        <path
   d="M758.714,298.839L766.273,315.327L764.948,315.327L762.359,309.667L754.366,309.667L751.777,315.327L750.452,315.327L758.011,298.839L758.714,298.839ZM761.878,308.612L758.351,300.901L754.847,308.612L761.878,308.612Z"
   style="fill:#009edb;fill-rule:nonzero;fill-opacity:1"
   id="path38" />
        <path
   d="M780.019,298.956L780.019,300.011L773.878,300.011L773.878,315.327L772.601,315.327L772.601,300.011L766.46,300.011L766.46,298.956L780.019,298.956Z"
   style="fill:#009edb;fill-rule:nonzero;fill-opacity:1"
   id="path40" />
        <rect
   x="781.999"
   y="298.956"
   width="1.266"
   height="16.371"
   style="fill:#009edb;fill-rule:nonzero;fill-opacity:1"
   id="rect42" />
        <path
   d="M794.984,298.745C797.405,298.745 799.458,299.56 801.142,301.189C802.825,302.817 803.667,304.804 803.667,307.148C803.667,309.483 802.825,311.466 801.142,313.095C799.458,314.724 797.405,315.538 794.984,315.538C792.57,315.538 790.525,314.724 788.849,313.095C787.173,311.466 786.335,309.483 786.335,307.148C786.335,304.804 787.173,302.817 788.849,301.189C790.525,299.56 792.57,298.745 794.984,298.745ZM795.03,314.366C797.07,314.366 798.79,313.669 800.193,312.274C801.595,310.88 802.296,309.171 802.296,307.148C802.296,305.116 801.595,303.403 800.193,302.009C798.79,300.614 797.07,299.917 795.03,299.917C792.984,299.917 791.251,300.614 789.833,302.009C788.415,303.403 787.706,305.116 787.706,307.148C787.706,309.171 788.415,310.88 789.833,312.274C791.251,313.669 792.984,314.366 795.03,314.366Z"
   style="fill:#009edb;fill-rule:nonzero;fill-opacity:1"
   id="path44" />
        <path
   d="M821.503,298.956L821.503,315.327L820.448,315.327L808.015,301.019L808.015,315.327L806.749,315.327L806.749,298.956L807.827,298.956L820.238,313.265L820.238,298.956L821.503,298.956Z"
   style="fill:#009edb;fill-rule:nonzero;fill-opacity:1"
   id="path46" />
        <path
   d="M832.976,299.776L832.976,301.171C831.554,300.335 830.331,299.917 829.308,299.917C828.323,299.917 827.501,300.216 826.841,300.814C826.181,301.411 825.851,302.151 825.851,303.034C825.851,303.667 826.046,304.237 826.437,304.745C826.827,305.253 827.644,305.741 828.886,306.21C830.128,306.679 831.034,307.069 831.605,307.382C832.175,307.694 832.659,308.148 833.058,308.741C833.456,309.335 833.655,310.105 833.655,311.05C833.655,312.308 833.195,313.37 832.273,314.237C831.351,315.105 830.226,315.538 828.898,315.538C827.538,315.538 826.14,315.062 824.702,314.108L824.702,312.62C826.288,313.784 827.663,314.366 828.827,314.366C829.796,314.366 830.614,314.052 831.282,313.423C831.95,312.794 832.284,312.023 832.284,311.108C832.284,310.413 832.077,309.786 831.663,309.228C831.249,308.669 830.409,308.148 829.144,307.663C827.878,307.179 826.974,306.788 826.431,306.491C825.888,306.194 825.427,305.771 825.048,305.22C824.669,304.669 824.48,303.96 824.48,303.093C824.48,301.89 824.941,300.864 825.863,300.017C826.784,299.169 827.894,298.745 829.191,298.745C830.464,298.745 831.726,299.089 832.976,299.776Z"
   style="fill:#009edb;fill-rule:nonzero;fill-opacity:1"
   id="path48" />
    </g>
    <g
   transform="matrix(6.68477,0,0,6.68477,-9526.57,-2002.82)"
   id="g74">
        <path
   d="M1524.25,350.203L1517.49,350.203L1517.49,357.668L1514.9,357.668L1514.9,340.582L1517.49,340.582L1517.49,347.906L1524.25,347.906L1524.25,340.582L1526.84,340.582L1526.84,357.668L1524.25,357.668L1524.25,350.203Z"
   style="fill:#009edb;fill-rule:nonzero;fill-opacity:1"
   id="path52" />
        <path
   d="M1530.14,340.582L1532.73,340.582L1532.73,351.598C1532.74,352.762 1533.08,353.648 1533.73,354.258C1534.37,354.898 1535.2,355.219 1536.21,355.219C1537.21,355.219 1538.05,354.898 1538.7,354.258C1539.34,353.648 1539.67,352.762 1539.69,351.598L1539.69,340.582L1542.28,340.582L1542.28,351.879C1542.25,353.676 1541.66,355.101 1540.53,356.156C1539.39,357.242 1537.95,357.793 1536.21,357.808C1534.5,357.793 1533.07,357.242 1531.92,356.156C1530.75,355.101 1530.15,353.676 1530.14,351.879L1530.14,340.582Z"
   style="fill:#009edb;fill-rule:nonzero;fill-opacity:1"
   id="path54" />
        <path
   d="M1545.57,340.582L1548.01,340.582L1552.9,351.715L1557.71,340.582L1560.16,340.582L1560.16,357.668L1557.57,357.668L1557.57,347.016L1557.51,347.016L1553.94,355.219L1551.78,355.219L1548.21,347.016L1548.16,347.016L1548.16,357.668L1545.57,357.668L1545.57,340.582Z"
   style="fill:#009edb;fill-rule:nonzero;fill-opacity:1"
   id="path56" />
        <path
   d="M1571.77,351.551L1569.3,344.086L1569.25,344.086L1566.78,351.551L1571.77,351.551ZM1572.51,353.848L1566.03,353.848L1564.72,357.668L1561.98,357.668L1568.19,340.582L1570.36,340.582L1576.57,357.668L1573.84,357.668L1572.51,353.848Z"
   style="fill:#009edb;fill-rule:nonzero;fill-opacity:1"
   id="path58" />
        <path
   d="M1578.39,340.582L1580.83,340.582L1588.57,352.723L1588.61,352.723L1588.61,340.582L1591.2,340.582L1591.2,357.668L1588.75,357.668L1581.03,345.527L1580.98,345.527L1580.98,357.668L1578.39,357.668L1578.39,340.582Z"
   style="fill:#009edb;fill-rule:nonzero;fill-opacity:1"
   id="path60" />
        <path
   d="M1603.15,348.07L1607.07,348.07C1608.04,348.055 1608.77,347.773 1609.25,347.226C1609.73,346.719 1609.96,346.094 1609.96,345.351C1609.95,344.461 1609.66,343.816 1609.11,343.418C1608.67,343.066 1608.04,342.891 1607.21,342.891L1603.15,342.891L1603.15,348.07ZM1600.57,340.582L1607.23,340.582C1608.65,340.582 1609.82,340.957 1610.71,341.707C1611.8,342.558 1612.37,343.773 1612.41,345.351C1612.38,347.672 1611.28,349.25 1609.11,350.086L1613.07,357.668L1609.99,357.668L1606.46,350.367L1603.15,350.367L1603.15,357.668L1600.57,357.668L1600.57,340.582Z"
   style="fill:#009edb;fill-rule:nonzero;fill-opacity:1"
   id="path62" />
        <rect
   x="1615.2"
   y="340.582"
   width="2.59"
   height="17.086"
   style="fill:#009edb;fill-rule:nonzero;fill-opacity:1"
   id="rect64" />
        <path
   d="M1626.93,348.258L1633,348.258L1633,351.738C1632.97,353.449 1632.39,354.883 1631.25,356.039C1630.1,357.187 1628.65,357.777 1626.91,357.808C1625.57,357.777 1624.44,357.449 1623.55,356.824C1622.63,356.223 1621.97,355.527 1621.55,354.738C1621.43,354.48 1621.32,354.234 1621.21,354C1621.12,353.758 1621.04,353.453 1620.98,353.086C1620.86,352.398 1620.8,351.078 1620.8,349.125C1620.8,347.141 1620.86,345.812 1620.98,345.141C1621.11,344.469 1621.3,343.926 1621.55,343.512C1621.97,342.723 1622.63,342.019 1623.55,341.402C1624.44,340.777 1625.57,340.457 1626.91,340.441C1628.56,340.457 1629.9,340.945 1630.94,341.906C1631.98,342.875 1632.64,344.074 1632.91,345.504L1630.17,345.504C1629.96,344.816 1629.57,344.23 1629.02,343.746C1628.44,343.285 1627.74,343.047 1626.91,343.031C1626.3,343.047 1625.78,343.168 1625.34,343.394C1624.89,343.629 1624.53,343.922 1624.26,344.273C1623.92,344.641 1623.7,345.113 1623.59,345.691C1623.47,346.301 1623.4,347.445 1623.4,349.125C1623.4,350.805 1623.47,351.941 1623.59,352.535C1623.7,353.129 1623.92,353.609 1624.26,353.976C1624.53,354.328 1624.89,354.613 1625.34,354.832C1625.78,355.09 1626.3,355.219 1626.91,355.219C1627.92,355.219 1628.75,354.875 1629.4,354.187C1630.06,353.531 1630.4,352.668 1630.41,351.598L1630.41,350.707L1626.93,350.707L1626.93,348.258Z"
   style="fill:#009edb;fill-rule:nonzero;fill-opacity:1"
   id="path66" />
        <path
   d="M1645.38,350.203L1638.62,350.203L1638.62,357.668L1636.03,357.668L1636.03,340.582L1638.62,340.582L1638.62,347.906L1645.38,347.906L1645.38,340.582L1647.97,340.582L1647.97,357.668L1645.38,357.668L1645.38,350.203Z"
   style="fill:#009edb;fill-rule:nonzero;fill-opacity:1"
   id="path68" />
        <path
   d="M1654.47,342.891L1649.8,342.891L1649.8,340.582L1661.75,340.582L1661.75,342.891L1657.07,342.891L1657.07,357.668L1654.47,357.668L1654.47,342.891Z"
   style="fill:#009edb;fill-rule:nonzero;fill-opacity:1"
   id="path70" />
        <path
   d="M1663.79,353.519C1665.15,354.637 1666.77,355.203 1668.64,355.219C1670.86,355.187 1671.98,354.394 1672.02,352.84C1672.03,351.566 1671.29,350.801 1669.79,350.543C1669.1,350.449 1668.35,350.344 1667.53,350.226C1666.06,349.984 1664.94,349.441 1664.17,348.598C1663.39,347.73 1662.99,346.676 1662.99,345.433C1662.99,343.941 1663.49,342.738 1664.48,341.824C1665.44,340.918 1666.8,340.457 1668.57,340.441C1670.69,340.488 1672.54,341.078 1674.11,342.211L1672.67,344.344C1671.39,343.5 1669.98,343.062 1668.44,343.031C1667.64,343.031 1666.98,343.23 1666.45,343.629C1665.89,344.043 1665.61,344.66 1665.59,345.48C1665.59,345.973 1665.78,346.418 1666.17,346.816C1666.55,347.223 1667.16,347.504 1668.01,347.66C1668.48,347.738 1669.12,347.828 1669.93,347.93C1671.53,348.148 1672.71,348.723 1673.48,349.652C1674.24,350.566 1674.62,351.629 1674.62,352.84C1674.53,356.105 1672.53,357.762 1668.62,357.808C1666.09,357.808 1663.91,357.027 1662.09,355.465L1663.79,353.519Z"
   style="fill:#009edb;fill-rule:nonzero;fill-opacity:1"
   id="path72" />
    </g>
    <g
   transform="matrix(4.79685,0,0,4.79685,-3814.82,-1721.65)"
   id="g130">
        <path
   d="M920.098,454.416C920.098,453.728 920.218,453.12 920.458,452.592C920.698,452.064 921.018,451.624 921.418,451.272C921.802,450.936 922.238,450.68 922.726,450.504C923.214,450.328 923.706,450.24 924.202,450.24C924.698,450.24 925.19,450.328 925.678,450.504C926.166,450.68 926.61,450.936 927.01,451.272C927.394,451.624 927.706,452.064 927.946,452.592C928.186,453.12 928.306,453.728 928.306,454.416L928.306,463.44C928.306,464.16 928.186,464.776 927.946,465.288C927.706,465.8 927.394,466.224 927.01,466.56C926.61,466.912 926.166,467.176 925.678,467.352C925.19,467.528 924.698,467.616 924.202,467.616C923.706,467.616 923.214,467.528 922.726,467.352C922.238,467.176 921.802,466.912 921.418,466.56C921.018,466.224 920.698,465.8 920.458,465.288C920.218,464.776 920.098,464.16 920.098,463.44L920.098,454.416ZM922.546,463.44C922.546,464.032 922.71,464.468 923.038,464.748C923.366,465.028 923.754,465.168 924.202,465.168C924.65,465.168 925.038,465.028 925.366,464.748C925.694,464.468 925.858,464.032 925.858,463.44L925.858,454.416C925.858,453.824 925.694,453.388 925.366,453.108C925.038,452.828 924.65,452.688 924.202,452.688C923.754,452.688 923.366,452.828 923.038,453.108C922.71,453.388 922.546,453.824 922.546,454.416L922.546,463.44Z"
   style="fill:#009edb;fill-rule:nonzero;fill-opacity:1"
   id="path76" />
        <path
   d="M930.466,467.472L930.466,450.384L937.762,450.384L937.762,452.688L932.914,452.688L932.914,457.872L937.138,457.872L937.138,460.176L932.914,460.176L932.914,467.472L930.466,467.472Z"
   style="fill:#009edb;fill-rule:nonzero;fill-opacity:1"
   id="path78" />
        <path
   d="M939.346,467.472L939.346,450.384L946.642,450.384L946.642,452.688L941.794,452.688L941.794,457.872L946.018,457.872L946.018,460.176L941.794,460.176L941.794,467.472L939.346,467.472Z"
   style="fill:#009edb;fill-rule:nonzero;fill-opacity:1"
   id="path80" />
        <rect
   x="948.298"
   y="450.384"
   width="2.448"
   height="17.088"
   style="fill:#009edb;fill-rule:nonzero;fill-opacity:1"
   id="rect82" />
        <path
   d="M960.898,462.6L960.898,463.656C960.898,464.184 960.798,464.684 960.598,465.156C960.398,465.628 960.122,466.048 959.77,466.416C959.418,466.784 959.006,467.076 958.534,467.292C958.062,467.508 957.554,467.616 957.01,467.616C956.546,467.616 956.074,467.552 955.594,467.424C955.114,467.296 954.682,467.072 954.298,466.752C953.914,466.432 953.598,466.02 953.35,465.516C953.102,465.012 952.978,464.368 952.978,463.584L952.978,454.176C952.978,453.616 953.074,453.096 953.266,452.616C953.458,452.136 953.73,451.72 954.082,451.368C954.434,451.016 954.854,450.74 955.342,450.54C955.83,450.34 956.37,450.24 956.962,450.24C958.114,450.24 959.05,450.616 959.77,451.368C960.122,451.736 960.398,452.172 960.598,452.676C960.798,453.18 960.898,453.728 960.898,454.32L960.898,455.28L958.45,455.28L958.45,454.464C958.45,453.984 958.314,453.568 958.042,453.216C957.77,452.864 957.402,452.688 956.938,452.688C956.33,452.688 955.926,452.876 955.726,453.252C955.526,453.628 955.426,454.104 955.426,454.68L955.426,463.416C955.426,463.912 955.534,464.328 955.75,464.664C955.966,465 956.354,465.168 956.914,465.168C957.074,465.168 957.246,465.14 957.43,465.084C957.614,465.028 957.786,464.936 957.946,464.808C958.09,464.68 958.21,464.504 958.306,464.28C958.402,464.056 958.45,463.776 958.45,463.44L958.45,462.6L960.898,462.6Z"
   style="fill:#009edb;fill-rule:nonzero;fill-opacity:1"
   id="path84" />
        <path
   d="M962.89,467.472L962.89,450.384L970.186,450.384L970.186,452.688L965.338,452.688L965.338,457.704L969.562,457.704L969.562,460.008L965.338,460.008L965.338,465.024L970.186,465.024L970.186,467.472L962.89,467.472Z"
   style="fill:#009edb;fill-rule:nonzero;fill-opacity:1"
   id="path86" />
        <path
   d="M976.09,454.416C976.09,453.728 976.21,453.12 976.45,452.592C976.69,452.064 977.01,451.624 977.41,451.272C977.794,450.936 978.23,450.68 978.718,450.504C979.206,450.328 979.698,450.24 980.194,450.24C980.69,450.24 981.182,450.328 981.67,450.504C982.158,450.68 982.602,450.936 983.002,451.272C983.386,451.624 983.698,452.064 983.938,452.592C984.178,453.12 984.298,453.728 984.298,454.416L984.298,463.44C984.298,464.16 984.178,464.776 983.938,465.288C983.698,465.8 983.386,466.224 983.002,466.56C982.602,466.912 982.158,467.176 981.67,467.352C981.182,467.528 980.69,467.616 980.194,467.616C979.698,467.616 979.206,467.528 978.718,467.352C978.23,467.176 977.794,466.912 977.41,466.56C977.01,466.224 976.69,465.8 976.45,465.288C976.21,464.776 976.09,464.16 976.09,463.44L976.09,454.416ZM978.538,463.44C978.538,464.032 978.702,464.468 979.03,464.748C979.358,465.028 979.746,465.168 980.194,465.168C980.642,465.168 981.03,465.028 981.358,464.748C981.686,464.468 981.85,464.032 981.85,463.44L981.85,454.416C981.85,453.824 981.686,453.388 981.358,453.108C981.03,452.828 980.642,452.688 980.194,452.688C979.746,452.688 979.358,452.828 979.03,453.108C978.702,453.388 978.538,453.824 978.538,454.416L978.538,463.44Z"
   style="fill:#009edb;fill-rule:nonzero;fill-opacity:1"
   id="path88" />
        <path
   d="M986.458,467.472L986.458,450.384L993.754,450.384L993.754,452.688L988.906,452.688L988.906,457.872L993.13,457.872L993.13,460.176L988.906,460.176L988.906,467.472L986.458,467.472Z"
   style="fill:#009edb;fill-rule:nonzero;fill-opacity:1"
   id="path90" />
        <path
   d="M1001.41,467.472L1001.41,452.688L998.578,452.688L998.578,450.384L1006.69,450.384L1006.69,452.688L1003.86,452.688L1003.86,467.472L1001.41,467.472Z"
   style="fill:#009edb;fill-rule:nonzero;fill-opacity:1"
   id="path92" />
        <path
   d="M1007.77,467.472L1007.77,450.384L1010.22,450.384L1010.22,457.704L1013.24,457.704L1013.24,450.384L1015.69,450.384L1015.69,467.472L1013.24,467.472L1013.24,459.864L1010.22,459.864L1010.22,467.472L1007.77,467.472Z"
   style="fill:#009edb;fill-rule:nonzero;fill-opacity:1"
   id="path94" />
        <path
   d="M1017.99,467.472L1017.99,450.384L1025.29,450.384L1025.29,452.688L1020.44,452.688L1020.44,457.704L1024.67,457.704L1024.67,460.008L1020.44,460.008L1020.44,465.024L1025.29,465.024L1025.29,467.472L1017.99,467.472Z"
   style="fill:#009edb;fill-rule:nonzero;fill-opacity:1"
   id="path96" />
        <path
   d="M1031.34,467.472L1031.34,450.384L1033.79,450.384L1033.79,457.704L1036.81,457.704L1036.81,450.384L1039.26,450.384L1039.26,467.472L1036.81,467.472L1036.81,459.864L1033.79,459.864L1033.79,467.472L1031.34,467.472Z"
   style="fill:#009edb;fill-rule:nonzero;fill-opacity:1"
   id="path98" />
        <rect
   x="1041.63"
   y="450.384"
   width="2.448"
   height="17.088"
   style="fill:#009edb;fill-rule:nonzero;fill-opacity:1"
   id="rect100" />
        <path
   d="M1046.31,454.416C1046.31,453.728 1046.43,453.12 1046.67,452.592C1046.91,452.064 1047.23,451.624 1047.63,451.272C1048.02,450.936 1048.45,450.68 1048.94,450.504C1049.43,450.328 1049.92,450.24 1050.42,450.24C1050.91,450.24 1051.41,450.328 1051.89,450.504C1052.38,450.68 1052.83,450.936 1053.23,451.272C1053.61,451.624 1053.92,452.064 1054.16,452.592C1054.4,453.12 1054.52,453.728 1054.52,454.416L1054.52,455.28L1052.07,455.28L1052.07,454.416C1052.07,453.824 1051.91,453.388 1051.58,453.108C1051.25,452.828 1050.87,452.688 1050.42,452.688C1049.97,452.688 1049.58,452.828 1049.25,453.108C1048.93,453.388 1048.76,453.824 1048.76,454.416L1048.76,463.44C1048.76,464.032 1048.93,464.468 1049.25,464.748C1049.58,465.028 1049.97,465.168 1050.42,465.168C1050.87,465.168 1051.25,465.028 1051.58,464.748C1051.91,464.468 1052.07,464.032 1052.07,463.44L1052.07,460.224L1050.13,460.224L1050.13,458.064L1054.52,458.064L1054.52,463.44C1054.52,464.16 1054.4,464.776 1054.16,465.288C1053.92,465.8 1053.61,466.224 1053.23,466.56C1052.83,466.912 1052.38,467.176 1051.89,467.352C1051.41,467.528 1050.91,467.616 1050.42,467.616C1049.92,467.616 1049.43,467.528 1048.94,467.352C1048.45,467.176 1048.02,466.912 1047.63,466.56C1047.23,466.224 1046.91,465.8 1046.67,465.288C1046.43,464.776 1046.31,464.16 1046.31,463.44L1046.31,454.416Z"
   style="fill:#009edb;fill-rule:nonzero;fill-opacity:1"
   id="path102" />
        <path
   d="M1056.68,467.472L1056.68,450.384L1059.13,450.384L1059.13,457.704L1062.15,457.704L1062.15,450.384L1064.6,450.384L1064.6,467.472L1062.15,467.472L1062.15,459.864L1059.13,459.864L1059.13,467.472L1056.68,467.472Z"
   style="fill:#009edb;fill-rule:nonzero;fill-opacity:1"
   id="path104" />
        <path
   d="M1079.15,462.6L1079.15,463.656C1079.15,464.184 1079.05,464.684 1078.85,465.156C1078.65,465.628 1078.37,466.048 1078.02,466.416C1077.67,466.784 1077.25,467.076 1076.78,467.292C1076.31,467.508 1075.8,467.616 1075.26,467.616C1074.79,467.616 1074.32,467.552 1073.84,467.424C1073.36,467.296 1072.93,467.072 1072.55,466.752C1072.16,466.432 1071.85,466.02 1071.6,465.516C1071.35,465.012 1071.23,464.368 1071.23,463.584L1071.23,454.176C1071.23,453.616 1071.32,453.096 1071.51,452.616C1071.71,452.136 1071.98,451.72 1072.33,451.368C1072.68,451.016 1073.1,450.74 1073.59,450.54C1074.08,450.34 1074.62,450.24 1075.21,450.24C1076.36,450.24 1077.3,450.616 1078.02,451.368C1078.37,451.736 1078.65,452.172 1078.85,452.676C1079.05,453.18 1079.15,453.728 1079.15,454.32L1079.15,455.28L1076.7,455.28L1076.7,454.464C1076.7,453.984 1076.56,453.568 1076.29,453.216C1076.02,452.864 1075.65,452.688 1075.19,452.688C1074.58,452.688 1074.17,452.876 1073.97,453.252C1073.77,453.628 1073.67,454.104 1073.67,454.68L1073.67,463.416C1073.67,463.912 1073.78,464.328 1074,464.664C1074.21,465 1074.6,465.168 1075.16,465.168C1075.32,465.168 1075.49,465.14 1075.68,465.084C1075.86,465.028 1076.03,464.936 1076.19,464.808C1076.34,464.68 1076.46,464.504 1076.55,464.28C1076.65,464.056 1076.7,463.776 1076.7,463.44L1076.7,462.6L1079.15,462.6Z"
   style="fill:#009edb;fill-rule:nonzero;fill-opacity:1"
   id="path106" />
        <path
   d="M1080.99,454.416C1080.99,453.728 1081.11,453.12 1081.35,452.592C1081.59,452.064 1081.91,451.624 1082.31,451.272C1082.7,450.936 1083.13,450.68 1083.62,450.504C1084.11,450.328 1084.6,450.24 1085.1,450.24C1085.59,450.24 1086.09,450.328 1086.57,450.504C1087.06,450.68 1087.51,450.936 1087.91,451.272C1088.29,451.624 1088.6,452.064 1088.84,452.592C1089.08,453.12 1089.2,453.728 1089.2,454.416L1089.2,463.44C1089.2,464.16 1089.08,464.776 1088.84,465.288C1088.6,465.8 1088.29,466.224 1087.91,466.56C1087.51,466.912 1087.06,467.176 1086.57,467.352C1086.09,467.528 1085.59,467.616 1085.1,467.616C1084.6,467.616 1084.11,467.528 1083.62,467.352C1083.13,467.176 1082.7,466.912 1082.31,466.56C1081.91,466.224 1081.59,465.8 1081.35,465.288C1081.11,464.776 1080.99,464.16 1080.99,463.44L1080.99,454.416ZM1083.44,463.44C1083.44,464.032 1083.61,464.468 1083.93,464.748C1084.26,465.028 1084.65,465.168 1085.1,465.168C1085.55,465.168 1085.93,465.028 1086.26,464.748C1086.59,464.468 1086.75,464.032 1086.75,463.44L1086.75,454.416C1086.75,453.824 1086.59,453.388 1086.26,453.108C1085.93,452.828 1085.55,452.688 1085.1,452.688C1084.65,452.688 1084.26,452.828 1083.93,453.108C1083.61,453.388 1083.44,453.824 1083.44,454.416L1083.44,463.44Z"
   style="fill:#009edb;fill-rule:nonzero;fill-opacity:1"
   id="path108" />
        <path
   d="M1091.36,467.472L1091.36,450.384L1093.71,450.384L1096.86,459.432L1096.91,459.432L1100.03,450.384L1102.4,450.384L1102.4,467.472L1099.95,467.472L1099.95,457.08L1099.91,457.08L1097.48,464.424L1096.26,464.424L1093.86,457.08L1093.81,457.08L1093.81,467.472L1091.36,467.472Z"
   style="fill:#009edb;fill-rule:nonzero;fill-opacity:1"
   id="path110" />
        <path
   d="M1104.71,467.472L1104.71,450.384L1107.06,450.384L1110.2,459.432L1110.25,459.432L1113.37,450.384L1115.75,450.384L1115.75,467.472L1113.3,467.472L1113.3,457.08L1113.25,457.08L1110.83,464.424L1109.6,464.424L1107.2,457.08L1107.15,457.08L1107.15,467.472L1104.71,467.472Z"
   style="fill:#009edb;fill-rule:nonzero;fill-opacity:1"
   id="path112" />
        <rect
   x="1118.12"
   y="450.384"
   width="2.448"
   height="17.088"
   style="fill:#009edb;fill-rule:nonzero;fill-opacity:1"
   id="rect114" />
        <path
   d="M1130.87,455.304L1128.42,455.304L1128.42,454.752C1128.42,454.192 1128.29,453.708 1128.02,453.3C1127.76,452.892 1127.31,452.688 1126.69,452.688C1126.35,452.688 1126.08,452.752 1125.87,452.88C1125.67,453.008 1125.5,453.168 1125.37,453.36C1125.24,453.568 1125.15,453.804 1125.11,454.068C1125.06,454.332 1125.03,454.608 1125.03,454.896C1125.03,455.232 1125.05,455.512 1125.07,455.736C1125.09,455.96 1125.15,456.16 1125.25,456.336C1125.35,456.512 1125.49,456.664 1125.67,456.792C1125.85,456.92 1126.11,457.048 1126.43,457.176L1128.3,457.92C1128.84,458.128 1129.28,458.372 1129.62,458.652C1129.95,458.932 1130.22,459.256 1130.41,459.624C1130.59,460.008 1130.71,460.444 1130.77,460.932C1130.83,461.42 1130.87,461.976 1130.87,462.6C1130.87,463.32 1130.79,463.988 1130.65,464.604C1130.51,465.22 1130.27,465.744 1129.95,466.176C1129.62,466.624 1129.18,466.976 1128.63,467.232C1128.09,467.488 1127.43,467.616 1126.64,467.616C1126.05,467.616 1125.5,467.512 1124.99,467.304C1124.47,467.096 1124.03,466.808 1123.67,466.44C1123.3,466.072 1123.01,465.644 1122.79,465.156C1122.57,464.668 1122.47,464.136 1122.47,463.56L1122.47,462.648L1124.91,462.648L1124.91,463.416C1124.91,463.864 1125.05,464.268 1125.31,464.628C1125.57,464.988 1126.02,465.168 1126.64,465.168C1127.06,465.168 1127.38,465.108 1127.61,464.988C1127.85,464.868 1128.03,464.696 1128.15,464.472C1128.28,464.248 1128.36,463.98 1128.38,463.668C1128.41,463.356 1128.42,463.008 1128.42,462.624C1128.42,462.176 1128.4,461.808 1128.37,461.52C1128.34,461.232 1128.27,461 1128.18,460.824C1128.07,460.648 1127.92,460.504 1127.73,460.392C1127.55,460.28 1127.31,460.16 1127,460.032L1125.25,459.312C1124.19,458.88 1123.49,458.308 1123.13,457.596C1122.77,456.884 1122.59,455.992 1122.59,454.92C1122.59,454.28 1122.67,453.672 1122.85,453.096C1123.03,452.52 1123.29,452.024 1123.64,451.608C1123.98,451.192 1124.41,450.86 1124.93,450.612C1125.45,450.364 1126.07,450.24 1126.79,450.24C1127.39,450.24 1127.95,450.352 1128.45,450.576C1128.96,450.8 1129.39,451.096 1129.76,451.464C1130.5,452.232 1130.87,453.112 1130.87,454.104L1130.87,455.304Z"
   style="fill:#009edb;fill-rule:nonzero;fill-opacity:1"
   id="path116" />
        <path
   d="M1140.61,455.304L1138.16,455.304L1138.16,454.752C1138.16,454.192 1138.03,453.708 1137.77,453.3C1137.5,452.892 1137.06,452.688 1136.43,452.688C1136.1,452.688 1135.83,452.752 1135.62,452.88C1135.41,453.008 1135.24,453.168 1135.11,453.36C1134.99,453.568 1134.9,453.804 1134.85,454.068C1134.8,454.332 1134.78,454.608 1134.78,454.896C1134.78,455.232 1134.79,455.512 1134.81,455.736C1134.84,455.96 1134.9,456.16 1134.99,456.336C1135.09,456.512 1135.23,456.664 1135.41,456.792C1135.6,456.92 1135.85,457.048 1136.17,457.176L1138.04,457.92C1138.59,458.128 1139.03,458.372 1139.36,458.652C1139.7,458.932 1139.96,459.256 1140.15,459.624C1140.33,460.008 1140.45,460.444 1140.51,460.932C1140.58,461.42 1140.61,461.976 1140.61,462.6C1140.61,463.32 1140.54,463.988 1140.39,464.604C1140.25,465.22 1140.02,465.744 1139.7,466.176C1139.36,466.624 1138.92,466.976 1138.38,467.232C1137.83,467.488 1137.17,467.616 1136.39,467.616C1135.79,467.616 1135.24,467.512 1134.73,467.304C1134.22,467.096 1133.78,466.808 1133.41,466.44C1133.04,466.072 1132.75,465.644 1132.53,465.156C1132.32,464.668 1132.21,464.136 1132.21,463.56L1132.21,462.648L1134.66,462.648L1134.66,463.416C1134.66,463.864 1134.79,464.268 1135.05,464.628C1135.32,464.988 1135.76,465.168 1136.39,465.168C1136.8,465.168 1137.13,465.108 1137.36,464.988C1137.59,464.868 1137.77,464.696 1137.9,464.472C1138.03,464.248 1138.1,463.98 1138.13,463.668C1138.15,463.356 1138.16,463.008 1138.16,462.624C1138.16,462.176 1138.15,461.808 1138.11,461.52C1138.08,461.232 1138.02,461 1137.92,460.824C1137.81,460.648 1137.66,460.504 1137.48,460.392C1137.29,460.28 1137.05,460.16 1136.75,460.032L1134.99,459.312C1133.94,458.88 1133.23,458.308 1132.87,457.596C1132.51,456.884 1132.33,455.992 1132.33,454.92C1132.33,454.28 1132.42,453.672 1132.59,453.096C1132.77,452.52 1133.03,452.024 1133.39,451.608C1133.72,451.192 1134.15,450.86 1134.67,450.612C1135.19,450.364 1135.81,450.24 1136.53,450.24C1137.14,450.24 1137.69,450.352 1138.2,450.576C1138.7,450.8 1139.14,451.096 1139.51,451.464C1140.24,452.232 1140.61,453.112 1140.61,454.104L1140.61,455.304Z"
   style="fill:#009edb;fill-rule:nonzero;fill-opacity:1"
   id="path118" />
        <rect
   x="1142.51"
   y="450.384"
   width="2.448"
   height="17.088"
   style="fill:#009edb;fill-rule:nonzero;fill-opacity:1"
   id="rect120" />
        <path
   d="M1147.19,454.416C1147.19,453.728 1147.31,453.12 1147.55,452.592C1147.79,452.064 1148.11,451.624 1148.51,451.272C1148.89,450.936 1149.33,450.68 1149.81,450.504C1150.3,450.328 1150.79,450.24 1151.29,450.24C1151.79,450.24 1152.28,450.328 1152.77,450.504C1153.25,450.68 1153.7,450.936 1154.1,451.272C1154.48,451.624 1154.79,452.064 1155.03,452.592C1155.27,453.12 1155.39,453.728 1155.39,454.416L1155.39,463.44C1155.39,464.16 1155.27,464.776 1155.03,465.288C1154.79,465.8 1154.48,466.224 1154.1,466.56C1153.7,466.912 1153.25,467.176 1152.77,467.352C1152.28,467.528 1151.79,467.616 1151.29,467.616C1150.79,467.616 1150.3,467.528 1149.81,467.352C1149.33,467.176 1148.89,466.912 1148.51,466.56C1148.11,466.224 1147.79,465.8 1147.55,465.288C1147.31,464.776 1147.19,464.16 1147.19,463.44L1147.19,454.416ZM1149.63,463.44C1149.63,464.032 1149.8,464.468 1150.13,464.748C1150.45,465.028 1150.84,465.168 1151.29,465.168C1151.74,465.168 1152.13,465.028 1152.45,464.748C1152.78,464.468 1152.95,464.032 1152.95,463.44L1152.95,454.416C1152.95,453.824 1152.78,453.388 1152.45,453.108C1152.13,452.828 1151.74,452.688 1151.29,452.688C1150.84,452.688 1150.45,452.828 1150.13,453.108C1149.8,453.388 1149.63,453.824 1149.63,454.416L1149.63,463.44Z"
   style="fill:#009edb;fill-rule:nonzero;fill-opacity:1"
   id="path122" />
        <path
   d="M1157.46,467.472L1157.46,450.384L1159.81,450.384L1163.51,460.68L1163.55,460.68L1163.55,450.384L1166,450.384L1166,467.472L1163.7,467.472L1159.95,457.2L1159.91,457.2L1159.91,467.472L1157.46,467.472Z"
   style="fill:#009edb;fill-rule:nonzero;fill-opacity:1"
   id="path124" />
        <path
   d="M1168.21,467.472L1168.21,450.384L1175.51,450.384L1175.51,452.688L1170.66,452.688L1170.66,457.704L1174.88,457.704L1174.88,460.008L1170.66,460.008L1170.66,465.024L1175.51,465.024L1175.51,467.472L1168.21,467.472Z"
   style="fill:#009edb;fill-rule:nonzero;fill-opacity:1"
   id="path126" />
        <path
   d="M1179.54,452.688L1179.54,458.016L1180.93,458.016C1181.36,458.016 1181.71,457.956 1181.96,457.836C1182.22,457.716 1182.42,457.544 1182.56,457.32C1182.69,457.096 1182.78,456.82 1182.83,456.492C1182.87,456.164 1182.9,455.784 1182.9,455.352C1182.9,454.92 1182.87,454.54 1182.83,454.212C1182.78,453.884 1182.68,453.6 1182.54,453.36C1182.23,452.912 1181.66,452.688 1180.81,452.688L1179.54,452.688ZM1177.09,467.472L1177.09,450.384L1181.03,450.384C1183.91,450.384 1185.35,452.056 1185.35,455.4C1185.35,456.408 1185.19,457.264 1184.88,457.968C1184.57,458.672 1184.02,459.24 1183.23,459.672L1185.87,467.472L1183.28,467.472L1181,460.176L1179.54,460.176L1179.54,467.472L1177.09,467.472Z"
   style="fill:#009edb;fill-rule:nonzero;fill-opacity:1"
   id="path128" />
    </g>
</svg>
