<?xml version="1.0" encoding="UTF-8" standalone="no"?>
<svg
   width="544.93933"
   height="616.78021"
   viewBox="0 0 544.93933 616.78022"
   version="1.1"
   xml:space="preserve"
   style="clip-rule:evenodd;fill-rule:evenodd;stroke-linejoin:round;stroke-miterlimit:2"
   id="svg1"
   sodipodi:docname="OHCHR.svg"
   inkscape:version="1.4.2 (f4327f4, 2025-05-13)"
   xmlns:inkscape="http://www.inkscape.org/namespaces/inkscape"
   xmlns:sodipodi="http://sodipodi.sourceforge.net/DTD/sodipodi-0.dtd"
   xmlns="http://www.w3.org/2000/svg"
   xmlns:svg="http://www.w3.org/2000/svg"
   xmlns:serif="http://www.serif.com/"><defs
   id="defs1" /><sodipodi:namedview
   id="namedview1"
   pagecolor="#505050"
   bordercolor="#ffffff"
   borderopacity="1"
   inkscape:showpageshadow="0"
   inkscape:pageopacity="0"
   inkscape:pagecheckerboard="1"
   inkscape:deskcolor="#505050"
   inkscape:zoom="1.0646179"
   inkscape:cx="261.59621"
   inkscape:cy="323.59029"
   inkscape:window-width="1920"
   inkscape:window-height="1009"
   inkscape:window-x="-8"
   inkscape:window-y="-8"
   inkscape:window-maximized="1"
   inkscape:current-layer="svg1"><inkscape:page
     x="0"
     y="0"
     width="544.93933"
     height="616.78021"
     id="page1"
     margin="0"
     bleed="0" /></sodipodi:namedview>
    <g
   id="g20"
   transform="matrix(2.29717,0,0,2.29717,-20.8043,-19.3445)">
        <clipPath
   id="_clip1">
            <rect
   x="4.3169999"
   y="8.4209995"
   width="243.57201"
   height="233.15401"
   id="rect1" />
        </clipPath>
        <g
   clip-path="url(#_clip1)"
   id="g1">
            <g
   id="_-0a6aaeff"
   serif:id="#0a6aaeff">
                <path
   id="path5"
   d="m 138.033,8.421 c 0.93,0.712 1.413,1.796 2.034,2.75 3.412,5.5 6.812,11.004 10.221,16.508 2.47,4.229 5.391,8.167 8.154,12.204 8.683,12.292 16.608,25.092 24.95,37.613 2.7,5.083 5.529,10.1 8.133,15.233 1.479,3.8 3.179,7.534 4.325,11.45 1.033,4.663 2.888,9.154 3.221,13.954 0.629,3.917 0.275,7.892 0.367,11.838 0.158,4.9 -0.488,9.775 -0.909,14.646 -0.696,2.916 -1.296,5.858 -2.104,8.75 -0.862,2.579 -1.996,5.062 -2.967,7.604 -1.062,2.921 -2.716,5.575 -4.158,8.321 -1.992,3.966 -4.804,7.433 -7.262,11.108 -1.963,1.921 -3.613,4.129 -5.646,5.987 -2.6,2.855 -5.825,5.013 -8.846,7.384 -3.258,2.054 -6.588,4.004 -9.9,5.967 -2.708,1.212 -5.496,2.241 -8.25,3.341 -3.942,1.088 -7.946,1.946 -11.921,2.892 -4.254,0.521 -8.479,1.529 -12.775,1.525 0.979,-1.071 1.796,-2.279 2.858,-3.275 1.917,-1.658 2.446,-4.263 3.609,-6.417 0.771,-1.725 2.008,-3.325 2.112,-5.275 0.3,-3.204 1.109,-6.366 0.942,-9.604 -0.121,-3.092 0.417,-6.296 -0.775,-9.25 -0.771,-4.275 -2.879,-8.1 -4.6,-12.033 -4.908,-8.234 -10.121,-16.284 -15.204,-24.409 -2.842,-5.083 -5.75,-10.129 -8.496,-15.262 -1.408,-3.538 -2.754,-7.1 -4.063,-10.671 -2.233,-8.737 -4.204,-17.671 -3.97,-26.742 0.445,-4.637 1.012,-9.262 1.579,-13.887 0.854,-5.4 1.796,-10.784 2.671,-16.179 0.091,-0.684 0.325,-1.338 0.616,-1.963 0.384,5.538 1.092,11.063 2.459,16.45 1.425,4.542 3.229,8.959 4.979,13.388 1.562,3.121 2.758,6.441 4.696,9.366 3.65,5.067 7.02,10.363 11.066,15.134 1.292,1.241 2.363,2.675 3.613,3.958 3.854,4.6 8.579,8.396 12.425,13.008 1.383,1.35 2.787,2.709 3.875,4.325 1.716,2.738 3.566,5.388 5.341,8.092 2.292,4.029 4.342,8.188 6.384,12.346 1.483,3.15 2.462,6.596 4.554,9.425 0.3,-3.325 -0.513,-6.592 -0.825,-9.883 -0.608,-5.3 -2.409,-10.338 -4.167,-15.342 -0.758,-2.067 -1.879,-3.967 -2.812,-5.954 -2.109,-4.842 -4.654,-9.479 -7.092,-14.163 -1.742,-4.129 -4.025,-8.004 -5.767,-12.129 -1.987,-3.779 -3.629,-7.712 -5.595,-11.5 -2.196,-5.104 -4.63,-10.112 -6.563,-15.325 -1.033,-3.079 -2.375,-6.054 -3.254,-9.183 C 124.5,60.5 123.521,56.496 122.771,52.446 121.75,44.7 120.4,36.929 120.829,29.083 c 0.621,1.192 0.946,2.496 1.25,3.796 0.583,2.513 1.529,4.921 2.317,7.375 0.6,1.725 0.917,3.554 1.762,5.188 1.942,3.783 3.721,7.646 5.825,11.341 0.796,1.98 2.275,3.538 3.446,5.292 3.029,4.104 5.729,8.433 8.604,12.642 5.25,7.096 11.042,13.791 15.975,21.116 2.78,3.796 5.217,7.821 7.755,11.78 1.5,2.533 3.395,4.858 4.437,7.637 1.558,3.304 3.383,6.479 4.729,9.879 1.721,4.317 3.571,8.6 4.792,13.092 0.571,2.033 1.142,4.067 1.8,6.075 0.1,-2.717 1.175,-5.308 1.021,-8.042 -0.079,-4.583 0.171,-9.179 -0.259,-13.754 -0.933,-7.767 -4.116,-15.004 -7.183,-22.125 -2.187,-5.417 -5.242,-10.429 -7.533,-15.796 -4.475,-8.829 -8.334,-17.946 -12.796,-26.779 -2.154,-3.85 -4.117,-7.804 -6.275,-11.654 -1.188,-2.392 -2.092,-4.908 -3.171,-7.35 -1.4,-3.55 -3.087,-6.992 -4.15,-10.667 -1.342,-4.741 -3.212,-9.333 -4.142,-14.183 -0.358,-1.838 -1.062,-3.625 -1,-5.525 z"
   style="fill:#ffffff;fill-rule:nonzero" />
                <path
   id="path7"
   d="m 187.738,67.667 c 5.308,1.966 10.912,3.337 15.741,6.391 5.129,3.25 8.846,8.38 11.013,13.992 1.054,2.463 1.475,5.158 2.779,7.517 -7.671,-5.017 -14.583,-11.221 -20.267,-18.421 -1.058,-1.296 -1.887,-2.783 -3.146,-3.908 -2.045,-1.85 -4.1,-3.692 -6.12,-5.571 z"
   style="fill:#ffffff;fill-rule:nonzero" />
                <path
   id="path9"
   d="M 46.75,77.179 C 52,72.913 58.588,70.913 64.875,68.721 59.063,73.325 54.688,79.375 50.112,85.138 c -4.054,4.616 -9.408,7.779 -14.124,11.641 2.175,-4.091 2.575,-8.9 5.008,-12.871 1.646,-2.454 3.408,-4.891 5.754,-6.729 z"
   style="fill:#ffffff;fill-rule:nonzero" />
                <path
   id="path11"
   d="m 210.575,77.567 c 5.013,1.025 9.421,4.116 12.608,8.054 2.292,2.829 3.996,6.2 4.53,9.829 1.145,7.283 -1.084,14.704 0.554,21.954 -3.409,-5.904 -9.288,-9.646 -14.709,-13.492 -3.504,-2.537 -7.171,-5.058 -9.7,-8.641 -2.329,-3.258 -3.604,-7.129 -4.395,-11.021 1.137,2.004 2.512,3.888 4.283,5.383 4.087,3.538 9.108,5.759 13.342,9.096 1.558,1.213 2.891,2.679 4.262,4.088 1.454,1.5 2.008,3.616 3.417,5.141 -0.409,-1.27 -1.063,-2.437 -1.554,-3.671 -1.963,-4.758 -3.092,-9.795 -4.546,-14.72 -0.667,-2.234 -1.271,-4.538 -2.584,-6.496 -1.387,-2.233 -3.354,-4.029 -5.508,-5.504 z"
   style="fill:#ffffff;fill-rule:nonzero" />
                <path
   id="path13"
   d="m 31.313,85.5 c 2.9,-3.196 6.712,-5.588 10.929,-6.571 -2.404,1.596 -4.467,3.738 -5.746,6.346 -2.471,4.929 -2.821,10.55 -4.604,15.713 -0.884,2.841 -2.346,5.483 -2.971,8.404 1.842,-3.429 4.1,-6.688 7.133,-9.188 4.242,-3.471 9.325,-5.787 13.388,-9.496 1.7,-1.558 3.104,-3.433 4.008,-5.562 0.121,0.062 0.367,0.183 0.492,0.242 l -0.58,0.17 c -0.02,4.979 -2.724,9.505 -5.937,13.13 -3.433,3.85 -7.617,6.925 -11.925,9.72 -3.717,2.825 -7.304,6.034 -9.629,10.142 -0.221,-2.712 0.421,-5.417 0.142,-8.129 -0.567,-5.517 -1.075,-11.208 0.412,-16.633 0.838,-3.142 2.542,-6.03 4.888,-8.288 z"
   style="fill:#ffffff;fill-rule:nonzero" />
                <path
   id="path15"
   d="m 228.658,91.096 c 1.509,0.925 2.463,2.446 3.53,3.812 7.233,8.692 9.208,21.409 5.074,31.913 -1.562,3.442 -3.074,6.929 -4.024,10.6 -0.555,1.829 -0.8,3.729 -1.334,5.567 -1.108,-6.496 -5.204,-11.859 -9.366,-16.742 -3.375,-4.071 -7.009,-8.05 -9.271,-12.883 -1.421,-3.125 -2.579,-6.38 -3.267,-9.746 4.237,6.491 11.654,9.804 16.583,15.646 1.542,1.8 2.58,3.962 3.429,6.162 0.705,1.933 0.634,4.087 1.575,5.942 0.101,-1.296 -0.174,-2.571 -0.308,-3.85 -0.816,-7.625 -0.387,-15.329 0.713,-22.9 0.22,-4.684 -0.538,-9.638 -3.334,-13.521 z"
   style="fill:#ffffff;fill-rule:nonzero" />
                <path
   id="path17"
   d="m 21.65,95.829 c 0.933,-1.179 1.804,-2.433 2.975,-3.391 -1.321,2.187 -2.5,4.512 -2.846,7.079 -1.275,8.266 2.229,16.396 1.3,24.675 -0.191,2.821 -0.6,5.637 -0.591,8.466 0.816,-0.883 0.7,-2.179 0.983,-3.275 0.571,-3.575 2.421,-6.804 4.737,-9.533 3.15,-3.667 6.963,-6.667 10.7,-9.704 1.796,-1.45 3.3,-3.259 4.384,-5.296 -0.571,4.196 -2.046,8.233 -3.963,11.996 -3.983,6.8 -9.812,12.308 -13.742,19.146 -1.508,2.583 -2.583,5.408 -3.179,8.337 -0.858,-9.05 -7.208,-16.525 -7.883,-25.608 -0.104,-3.417 -0.129,-6.892 0.717,-10.229 1.121,-4.646 3.496,-8.9 6.408,-12.663 z"
   style="fill:#ffffff;fill-rule:nonzero" />
                <path
   id="path19"
   d="m 60.633,101.833 c 0.605,-1.629 1.134,-3.283 1.859,-4.862 0.254,2.312 -0.409,4.571 -0.767,6.833 -1.171,6.65 -1.396,13.575 0.233,20.171 1.15,3.871 2.538,7.667 4.05,11.413 0.796,2.875 2.9,5.07 4.317,7.633 1.342,2.446 3.463,4.279 5.221,6.404 2.446,2.754 5.567,4.729 8.458,6.962 3.038,2.467 6.783,3.776 10.159,5.684 1.862,1.137 3.945,1.837 5.937,2.717 1.221,0.07 0.838,-1.367 0.388,-2.005 -3.117,-4.995 -5.742,-10.279 -8.834,-15.291 -0.575,-0.954 -1.183,-1.9 -1.6,-2.942 -1.583,-4.475 -3.066,-8.996 -4.087,-13.638 -0.904,-7.625 -0.521,-15.312 -0.596,-22.97 0.062,-1.6 -0.192,-3.229 0.2,-4.796 0.9,4.179 0.825,8.533 1.892,12.696 1.758,8.096 4.57,15.966 8.433,23.296 3.042,4.654 6.196,9.25 9.787,13.504 3.059,3.05 6.105,6.116 9.171,9.162 2.775,2.079 4.759,4.959 7.092,7.484 2.708,5.491 4.025,11.691 3.733,17.82 -0.579,2.655 -1.075,5.375 -2.525,7.73 -0.579,1.637 -1.858,2.795 -3.054,3.987 -1.562,2.275 -4.133,3.483 -6.083,5.379 -0.625,-1.141 -0.613,-2.5 -1.234,-3.637 -0.725,-1.554 -1.954,-2.775 -3.125,-3.988 -3.358,-1.837 -6.725,-3.683 -10.25,-5.192 -6.012,-3.474 -12.258,-6.624 -17.716,-10.962 -2.729,-2.271 -5.7,-4.275 -8.084,-6.929 -1.25,-1.442 -2.991,-2.371 -4.112,-3.933 -2.171,-2.8 -4.629,-5.392 -6.496,-8.417 -1.337,-2.279 -3.071,-4.35 -3.983,-6.854 -1.521,-3.604 -3.592,-7.075 -4.109,-11.009 -1.1,-4.762 -0.791,-9.687 -0.841,-14.537 -0.238,-3.992 1.208,-7.796 1.837,-11.692 0.888,-5.271 3.134,-10.154 4.729,-15.221 z"
   style="fill:#ffffff;fill-rule:nonzero" />
                <path
   id="path21"
   d="m 241.8,118.525 c 5.471,11.071 3.963,24.767 -2.212,35.233 -4.384,5.75 -9.613,10.821 -13.834,16.705 0.404,-4.43 0.95,-9.055 -0.529,-13.35 -3.35,-8.905 -6.308,-18.046 -7.479,-27.525 -0.329,-1.975 -0.217,-3.975 -0.096,-5.959 2.1,7.992 8.775,13.613 11.792,21.175 1.3,3.1 1.516,6.513 1.304,9.834 -0.179,2.029 -0.963,3.933 -1.254,5.941 0.412,-0.383 0.812,-0.804 0.891,-1.387 1.338,-4.75 2.188,-9.654 4.046,-14.246 2.438,-5.629 5.771,-10.942 7.134,-16.992 0.733,-3.087 0.762,-6.308 0.237,-9.429 z"
   style="fill:#ffffff;fill-rule:nonzero" />
                <path
   id="path23"
   d="m 12.254,119.971 c -0.6,3.191 -0.554,6.504 0.304,9.642 1.9,7.22 6.625,13.283 8.759,20.412 1.15,3.542 1.496,7.304 2.887,10.771 0.175,0.458 0.459,0.846 0.838,1.167 -0.8,-2.8 -1.621,-5.655 -1.396,-8.605 0.367,-7.52 4.525,-14.125 8.804,-20.058 1.888,-2.479 2.946,-5.442 3.863,-8.383 0.587,5.1 -0.675,10.15 -1.459,15.154 -1.525,6.808 -4.008,13.346 -6.025,20.012 -1.071,3.825 -0.571,7.821 -0.1,11.692 -1.275,-1.283 -2.079,-2.933 -3.279,-4.279 -4.396,-5.467 -10.175,-10 -13.054,-16.55 -2.517,-6.754 -3.992,-14.096 -2.983,-21.304 0.662,-3.292 1.387,-6.625 2.841,-9.671 z"
   style="fill:#ffffff;fill-rule:nonzero" />
                <path
   id="path25"
   d="m 219.458,147.85 c -1.012,8.8 3.8,17.133 2.555,25.921 -0.542,4.3 -2.546,8.208 -4.9,11.775 0.937,-0.454 1.483,-1.375 2.124,-2.15 3.317,-4.171 6.351,-8.608 10.238,-12.292 4.754,-4.258 9.829,-8.416 13.079,-14.008 1.375,-2.296 2.171,-4.875 2.629,-7.496 0.855,5.617 0.084,11.463 -2.304,16.625 -3.525,7.754 -9.896,13.875 -16.987,18.421 -5.892,3.533 -11.917,6.858 -17.646,10.658 1.012,-2.046 2.292,-3.962 3.008,-6.141 4.179,-11.23 2.242,-23.605 5.754,-34.984 0.65,-2.175 1.65,-4.212 2.45,-6.329 z"
   style="fill:#ffffff;fill-rule:nonzero" />
                <path
   id="path27"
   d="m 35.038,154.167 c 0.158,-1.563 0.016,-3.138 0.05,-4.704 5.6,11.741 4.179,25.129 7.079,37.533 0.691,3.367 2.791,6.171 4.183,9.25 C 37.163,190.663 27.225,186.029 19.3,178.621 13.996,173.7 10.108,167.038 9.288,159.783 c -0.305,-2.854 -0.33,-5.75 0.054,-8.6 0.162,3.375 1.666,6.521 3.616,9.225 5.43,7.417 13.688,12.209 18.963,19.767 1.708,2.221 3.217,4.675 5.454,6.429 -0.417,-0.875 -0.958,-1.675 -1.504,-2.466 -2.833,-4.425 -4.008,-9.805 -3.579,-15.017 0.35,-5.083 2.291,-9.888 2.746,-14.954 z"
   style="fill:#ffffff;fill-rule:nonzero" />
                <path
   id="path29"
   d="m 205.958,176.383 c 1.871,-2.391 3.68,-4.85 5.834,-6.991 -3.925,7.508 -3.134,16.341 -6.1,24.154 -2.088,5.408 -6.234,9.667 -10.575,13.354 2.529,-0.683 4.233,-2.775 6.337,-4.183 7.021,-4.996 15.346,-7.58 22.875,-11.659 5.525,-2.9 10.571,-7.141 13.396,-12.8 -1.025,6.492 -4.754,12.221 -9.271,16.855 -5.591,5.658 -12.516,10.016 -20.079,12.491 -7.571,2.134 -15.533,2.492 -23.067,4.809 4.75,-3.688 8.03,-8.917 10.209,-14.455 2.983,-7.4 5.066,-15.437 10.441,-21.575 z"
   style="fill:#ffffff;fill-rule:nonzero" />
                <path
   id="path31"
   d="m 42.533,170.508 c 4.405,4.813 8.692,9.863 11.596,15.75 3.017,6.613 4.725,13.871 8.875,19.938 1.763,2.633 4.034,4.887 6.538,6.812 -9.438,-2.729 -19.642,-2.312 -28.725,-6.325 -8.104,-3.975 -15.542,-9.783 -20.334,-17.529 -1.762,-2.866 -3.075,-6.021 -3.733,-9.325 1.804,3.346 4.258,6.359 7.325,8.625 8.679,6.592 19.85,8.659 28.638,15.079 2.195,1.667 4.495,3.25 7.083,4.25 -2.179,-2.012 -4.621,-3.758 -6.525,-6.054 -1.733,-2.129 -3.321,-4.421 -4.308,-7 -3.075,-7.821 -2.384,-16.721 -6.43,-24.221 z"
   style="fill:#ffffff;fill-rule:nonzero" />
                <path
   id="path33"
   d="m 173.238,209.867 c 7.179,-6.163 13.937,-12.967 22.108,-17.842 -4.383,5.217 -6.088,12.15 -10.675,17.225 -2.171,2.45 -5.054,4.138 -8.046,5.388 -2.171,0.841 -4.496,1.2 -6.642,2.112 2.4,0.017 4.767,-0.467 7.121,-0.904 9.384,-1.754 19.046,-1.242 28.392,-3.254 5.446,-1.15 10.704,-3.617 14.575,-7.684 -3.2,6.1 -8.888,10.5 -14.921,13.588 -6.429,3.292 -13.763,4.704 -20.958,4.083 -9.909,-0.7 -19.4,-3.971 -29.25,-5.083 6.471,-1.392 13.171,-3.213 18.296,-7.629 z"
   style="fill:#ffffff;fill-rule:nonzero" />
                <path
   id="path35"
   d="m 59.246,192.875 c 7.742,4.637 14.35,10.838 21.2,16.65 5.446,4.817 12.604,7.013 19.621,8.317 -1.738,0.446 -3.55,0.441 -5.309,0.766 -9.141,1.984 -18.25,4.738 -27.687,4.734 -7.504,0.075 -14.996,-2.117 -21.317,-6.15 -4.421,-2.809 -8.387,-6.479 -11.066,-11.013 3.191,3.038 7.1,5.288 11.345,6.479 10.246,3.017 21.092,1.859 31.525,3.696 2.496,0.334 4.963,1.163 7.509,0.917 -1.417,-0.671 -2.975,-0.9 -4.488,-1.254 -3.554,-0.992 -6.996,-2.667 -9.591,-5.338 C 65.9,205.571 63.75,198.417 59.246,192.875 Z"
   style="fill:#ffffff;fill-rule:nonzero" />
                <path
   id="path37"
   d="m 89.583,223.75 c 7.092,-2.788 14.384,-5.421 22.038,-6.042 4.25,-0.4 8.537,-0.02 12.717,0.796 1.308,0.296 2.591,0.938 3.966,0.8 2.879,-1.283 6.071,-1.512 9.175,-1.758 8.717,-0.508 17.529,1.212 25.446,4.879 5.204,1.754 10.263,4.179 15.771,4.842 7.525,0.971 15.458,-0.179 22.075,-4.021 -5.288,5.717 -12.663,9.329 -20.308,10.575 -10.475,1.546 -21.046,-2.138 -29.692,-7.9 -3.475,-2.033 -6.738,-4.792 -10.838,-5.408 -2.462,-0.209 -4.97,-0.15 -7.4,0.358 9.634,4.062 18.596,9.671 26.488,16.521 -1.479,1.446 -3.142,2.679 -4.804,3.904 -7.729,-7.404 -16.029,-14.559 -25.9,-18.938 -1.913,-0.12 -3.679,1.084 -5.392,1.855 -8.117,4.545 -15.717,10.216 -21.729,17.362 -1.679,-1.246 -3.354,-2.492 -5.038,-3.733 6.559,-5.929 13.9,-11.009 21.863,-14.863 1.508,-0.791 3.133,-1.346 4.612,-2.2 -4.637,-1.408 -9.57,0 -13.583,2.454 -5.875,3.6 -11.567,7.75 -18.237,9.763 -7.346,2.304 -15.496,2.537 -22.742,-0.258 -5.042,-1.855 -10.038,-4.438 -13.583,-8.567 7.308,4.137 16.166,4.916 24.312,3.292 3.763,-0.696 7.225,-2.375 10.783,-3.713 z"
   style="fill:#ffffff;fill-rule:nonzero" />
            </g>
        </g>
    </g>
<text
   xml:space="preserve"
   style="font-style:normal;font-variant:normal;font-weight:bold;font-stretch:normal;font-size:74.6667px;font-family:sans-serif;-inkscape-font-specification:'sans-serif Bold';text-align:start;writing-mode:lr-tb;direction:ltr;text-anchor:start;fill:#ffffff"
   x="119.70918"
   y="604.91193"
   id="text1"><tspan
     sodipodi:role="line"
     id="tspan1"
     x="119.70918"
     y="604.91193">OHCHR</tspan></text></svg>
