<?xml version="1.0" encoding="UTF-8" standalone="no"?>
<svg
   viewBox="0 0 470 400"
   fill="#009EDC"
   version="1.1"
   id="svg6"
   sodipodi:docname="UN generic 1.svg"
   inkscape:version="1.4.2 (f4327f4, 2025-05-13)"
   xmlns:inkscape="http://www.inkscape.org/namespaces/inkscape"
   xmlns:sodipodi="http://sodipodi.sourceforge.net/DTD/sodipodi-0.dtd"
   xmlns:xlink="http://www.w3.org/1999/xlink"
   xmlns="http://www.w3.org/2000/svg"
   xmlns:svg="http://www.w3.org/2000/svg">
  <sodipodi:namedview
     id="namedview6"
     pagecolor="#505050"
     bordercolor="#ffffff"
     borderopacity="1"
     inkscape:showpageshadow="0"
     inkscape:pageopacity="0"
     inkscape:pagecheckerboard="1"
     inkscape:deskcolor="#505050"
     inkscape:zoom="2.0175"
     inkscape:cx="234.94424"
     inkscape:cy="200"
     inkscape:window-width="1920"
     inkscape:window-height="1009"
     inkscape:window-x="-8"
     inkscape:window-y="-8"
     inkscape:window-maximized="1"
     inkscape:current-layer="svg6" />
  <defs
     id="defs6" />
  <path
     id="branch"
     d="m121 336c-19-16-22-39-30-59-5-13-14-24-23-35 12 34 5 58 34 82-5-2-10-6-14-9-23-19-57-22-71-53 4 23 22 43 41 56 19 12 43 11 63 18m50 12c3-1 7-1 11-2-14-2-27-7-37-16-15-14-28-28-44-39 17 34 23 48 51 54 0 0-8-1-12-2-30-6-66 2-88-23 9 16 26 29 42 35 26 8 53-1 77-7m40-2c-48 0-73 42-120 14 23 28 60 30 90 11 12-8 23-19 38-19 23 0 48 24 69 46 4-3 7-6 10-9-22-21-54-43-87-43m-135-47s-6-11-8-18c-7-27-3-60-15-86 2 15-4 28-5 42-2 19 5 32 10 41 0 0-7-9-10-14-14-22-43-37-45-64-4 59 37 75 73 99m-14-175c4-8 6-18 8-27-2 4-4 8-7 11-19 16-30 25-35 50l2-22c2-22-10-46 3-65-13 14-20 32-20 50 0 24 14 41 15 64 4-24 24-41 34-61m-7-44c9-8 20-15 28-25 9-12 17-26 29-37-16 7-34 13-45 30-6 10-7 22-12 32m-20 48c4-8 11-16 18-22 18-13 36-30 37-52-10 24-41 28-48 53 0 0 4-15 5-18 5-17 4-37 21-48-33 7-35 43-33 70 0 6 1 11 0 17m5 116s-2-19 1-27c8-24 16-50 15-75-8 30-33 40-22 81-4-8-5-17-8-25-6-22-23-41-18-67-8 23-8 41 0 65 5 18 23 31 32 48"
     style="fill-opacity:0.0;fill:#ffffff" />
  <use
     transform="matrix(-1,0,0,1,470,0)"
     xlink:href="#branch"
     id="use1"
     style="fill-opacity:0.0;fill:#ffffff" />
  <g
     id="grid"
     stroke="#009EDC"
     stroke-width="4"
     fill="none"
     style="stroke-opacity:0.0;stroke:#ffffff">
    <circle
       cx="235"
       cy="167"
       r="163"
       id="circle1"
       style="stroke-opacity:1.0;stroke:#ffffff" />
    <circle
       cx="235"
       cy="167"
       r="129"
       id="circle2"
       style="stroke-opacity:1.0;stroke:#ffffff" />
    <circle
       cx="235"
       cy="167"
       r="98"
       id="circle3"
       style="stroke-opacity:1.0;stroke:#ffffff" />
    <circle
       cx="235"
       cy="167"
       r="64"
       id="circle4"
       style="stroke-opacity:1.0;stroke:#ffffff" />
    <circle
       cx="235"
       cy="167"
       r="33"
       id="circle5"
       style="stroke-opacity:1.0;stroke:#ffffff" />
    <path
       d="m235 4v130m0 66v130m-115-278 92 92m46 46 92 92m-278-115h130m66 0h130m-278 115 92-92m46-46 92-92"
       id="path5"
       style="stroke-opacity:1.0;stroke:#ffffff" />
  </g>
  <g
     id="map"
     transform="matrix(.1 0 0 .1 211 140)"
     style="fill-opacity:0.0;fill:#ffffff">
    <path
       d="m161 672c4-8 12-40 22-30s16 0 16 0 5 5 2 15c-2 10-5 20-11 22-6 1-11 5-19 6-6 1-10-13-10-13zm82-13c2-2 5 8 10 6 5-1 7 9 2 9s-5 6-5 9 0 9-4 13-7 1-12-1c-5-3-7-3-14-3-6 0-1 10-1 10s-26-1-21-5 10-5 6-8 0-5 0-10 12-3 9-6c-4-4 0-18 6-10l4-9c-4-4-1-5-9-8-7-3-1-18-1-18l1-10c2-13 27-14 29-3 1 11 0 19 0 19l7 3s-1 8-7 8 0 4-4 8zm921-608c-7 7-22 10-22 10l-5 19-8 7s2 5 0 17-17 19-17 19l-7 8s-40 2-45 0c-15-7-5-27 5-25s-2-29-2-29l13-2s2-30 7-30-2-10-8-15c-7-5-15-22-22-20s-33 0-33 0l-5 10-18 3s2 13-2 17c-10 12-48 37-32-5l5-10v-15l-30-2s-15-5-15-12-2-15-2-15l-35-39-42-5-3-8-25-3c-30-15-57-2-52 24 5 25 13 35-3 35-17 0-20-13-20-13s-13-5-13 2-5 20 0 27-7 17-12 12-18-20-15-25-23-37 3-42c27-5-2-20 8-24l13-7h13l8-7-22-3-13-2-25-2c-25 17-30 37-30 37-13 25-45-10-33-24s-37-2-45 5-33 3-33 3c-5 15-28-2-22-12 7-10 7-17 7-17l-8-2-10 19c-23 0-30 13-25 22 5 8-7-2-10 10s2 12 12 17-5 5 2 13 27 0 15 12-35 7-35 7c-2 15-33 12-37 7-3-5-28-35-28-35l-32-2c-3-24 15-12 22-30 7-19 10-49 10-49s-27-2-28 7c-2 8-18 14-18 14s-13 5-8 12-10 10-10 10 3 11-2 15c-13 14-47 2-52-3l-20-8-20-13-23 10-7 7h-25l-2 20 45 5 3 42-18-6h-12l-5-10-10-2v37l10 8 8 8 17 2 3 20 42 2 5 8 25 2 48 49-3 15-8 5c3 12-22 5-22 5v10l12 2 12 7 17-29c18-12 27 5 28 15 2 10-8 8-8 8v24l10 3c17 20-7 32-7 32l-5 17c-5 15-23 12-23 12l-7 10-20 5 39 5c4-14 14-17 19-10s5 19 5 19l10 2-2 19 10 3v54l12 13c20-8 20 5 10 12s-3 37-3 37l-8 8v14l-10 7v19c-17-8-37-5-42 0-15-10-47-7-47 2 10 13-12 17-12 17l-12 13c8 17-8 19-8 19v32l-20 19 2 44c0 12 25 13 30 7 5-7 25 14 25 14h15l3-30-10-5v-49l17-19c20-7 13 44 13 49 2 19 10 17 18 13 17-7 3 19-10 17s-5 17-5 17l8 3-15 12-13 15-17-5-20-2-7-12-12-2-2 24-8 10-20 20c27 0-3 19-10 19 15 5-2 20-40 8v12l-13 2 12 13 13 2-5 29c0 22-55 7-60 2l-2 30-10 2 2 20-2 29 18-3v12l45 2 65-69 38-8c3-17 20 3 20 3 17-2 20 10 20 10l22 3c18 5 7 7 8 14 2 10 10 7 10 7l3-22 10 2-10-12-18-8-20-8c-13-19 3-15 17-13h22s25 34 25 42 12 10 12 10l15-2 5 12h15l5 10h30l2-15-28-5-2-17-20-5c-7-29 5-37 13-24l10 2-3-25 12-3-3-35-10-3v-12l42 2c-3-22 2-32 2-32h12l2 8 51 5 36-41c-2-3 4-5 0-9-5-5-12 0-20-5s0-34-2-40c-2-7 28-17 23-2s0 22 0 22c22-20 40 2 38 7s12 10 20 5 18 15 15 25-33 8-35-2-7-7-10-2-18 8-27 3c-2-1-2-2-3-3l-36 41h2c20 12 10 27 3 30s-18 3-18 3l-3 7-43 3-3 17c-22-3-30 20-25 32s0 22 0 22l18 8 23-7c3-17 18-20 32-30 13-10 35 19 28 32s-7 19-7 19l2 15-17 7-13 7-2 8h-45l-8 8-22 2-7 10-15 2s-25 12-15 25c10 14-42 12-53-7-3 17-22 2-22 2l-18-5-2-25c-3-17-35-17-33-5s-60 5-60 5l-20 10-18 11-2 8-30 3-13 7-5-10h-13l-13 19c-35 2-68 22-65 30s-13 17-13 17l-15 5-10 15-20 7-3 35-10 7v15l-12 3v8l-17 2 10 25 13 7c23 3 13 32 13 32l13 2 7 19 13 27c5 20 20 15 27 14 7-2 13 20 13 20l66 2s-3 7 8 10c12 3 88 7 91 2-3-15 42-19 60-5 18 13 43 5 43 5l25 30 17 37 28 8 20 5 7 29 15 2 5 19c18 13-5 42-5 42v37l13 7-2 14 22 22 25 2 63 67 50 15 8 27 13-2 10-8 40-2 20-19 22-3 185-157-17-10v-37c30-22 32-61 3-64-21-3-12-25 8-29l12-5v-15l38-35v-27l-83-69c-37-13 0-94 25-93 25 2-2-125-2-125l-13-7 3-41h-18l-30 39-8 27c-3 35-106 29-111 24s-40-20-40-20-27-22-32-15-28-8-28-3-22-12-22-12l-33-12 25-5-5-20 43 22c5 7 27 5 27 5l7 8s13-2 22 8c8 10 52 2 52 2l12 10 18 7 52 2 2-32 10-10-2-20 12-10v-17l10-3 2-37 8-2v-81l-25-24c-2 8-28 8-28 8s-7 12-12 12 7 15 3 25c-3 10-17 10-17 10l-25 7-7 8h-27l-3-22 30-8 17-8 8-17c2-17 22-15 22-15s38-32 40-47 15-57 38-57h43c17-7 12-29 12-29l22-3 3 12s30 3 33-2 10-17 18-12 35-12 35-12c2-12 43-7 43-7l5-15s-28-39-33-39-32-24-35-15c-27-7-25-44-25-44l-10-24c0-14-25-42-30-39-25-19-7-40 0-42s23-25 23-25l8-24 28-8 3-22-15-2s17-30 25-30 63 0 68-3 15-30 15-35 13-7 18-8c5-2 17-15 20-22 9-17-2-59-9-52zm461 539c-1-3-2-6-5-7-7-3-20 2-26 6l6 8c6-4 15-6 16-5v-1zm43 201-10-1c-1 8 1 18 9 19l2-10s-1-4-1-8zm37-40c3 10 6 20 6 21l9-4s-4-10-6-20zm22-8v-2c0-3-1-7-3-11l-9 5c1 2 1 5 2 7 0 3 1 6 3 8 2 1 4 2 7 1l-2-10c0 1 1 1 2 2zm-85 72c7-4 16-13 15 6s-9 13-15 19-10-19 0-25zm-401 130 1-15 16 2-1 14zm1 33c-2-9-12-12-13-12l-3 10c1 0 2 1 3 2l2 9c-1 1-2 2-2 3l7 7c5-8 7-13 6-19zm-1243 312-10 9-5 4 5 4 12 8 6-8-7-5 5-4zm118 121-4 9 10 5-3 4 7 7 13-13-6-4zm-459-2170 10 10-7 7-10-10zm302 315 10 8-6 8-10-8zm-38 7 2 19h25c10 0-8-12-8-12s-20 2-19-7zm548-470-17-2-1 10 14 1 11 17 8-6-11-18-2-2zm45-354-5 9 13 8 3 2 2-2 19-12-6-8-15 10zm89 48-8-9-7 8 15 15 3-3 17-14-7-8zm-552 351c-1-6 33-7 38-2s2 14 17 14 8 10 7 15c-2 5-18 3-20-2s-27-7-27-7-13-10-15-18zm191-19c26 8 35 2 37-5s3-8 13-10-2-22-12-20-20-3-22-12c-2-8-18-30-20-13s-12 17-10 29c3 11 8 29 14 31zm165-285c-4-15-25 19-3 25 22 7 43 0 43 0l5-10 83 2c7-7 10-17 10-17s20-7 28-3c8 3 2-24-7-20-8 3-25 2-25 2h-30c-2-12-28-7-30 0-1 6-11 8-11 8l-38 3c-4 10-23 17-25 10zm3 83-22-22v-19l-7-7-7-24-22-7-22 8-23 15-25 3-13 15 53 5 10 17 38 3 25 25c23 10 28 0 15-12zm77 162 7-16 9 5-7 15zm497-17c-3-13 33-25 42-15 8 10 32 12 35 62 1 18-30-19-30-19l-25-8c-14-3-21-11-22-20zm-175 44c-5 15-7 35-15 35s-5 22-5 22 22 0 28 2c7 2 7 19 7 19 25-2 35 32 32 41-3 8 10 8 10 8s0 27-3 34 22 12 28 22c7 10-3 44-8 46s13 7 12 15c-2 8 5 0 7 14 2 13 5 42 5 42l23 2c3-22 46-23 53-20 28 10 50 54 50 64s-18 12-18 12l3 49c28 8 52 49 48 56-3 7 20 5 20 5 3-30 32-20 33-10 2 10 7 32 7 32l8 15 12 12 18-2 5 10 22 3s18 20 20 25 27 3 33 5c7 2 17 7 18 15 2 8 12 22 12 22s20 5 22 12 10 22 10 22l17 14 2 15 18 2 5 20 30-2 17-12c22-12 37-27 38-34 2-7 5-32 22-27s5-37 5-37-23-17-22-25c2-8-23-25-22-32 2-7-22-20-20-27s-12-25-12-25l-25-24-3-15-20-2-40-49 2-14-12-2v-19l-12-7-18-2-37-40-3-19h-18l3-35c12-15 5-44 5-44s-23 12-35 7 5-17 5-17v-13l-10-10s-28 3-30-2-7-27-7-27l-2-29-12-5-2-10-18 2v-20l-10-3-10-5-2-20-37-2-12-17-13-20-42-3-10-10-17-3-12-5-5 8-32 2-2 10c-14 7-80 0-82 5zm-306-10c3 5 23 10 23 10 13 0 22 10 22 15s18 3 18 3l2-12-13-17-12-8s-18-2-18-7c0-4-19 11-22 16zm0 57-13-3v15l18 2zm185 186v-13s-2-13-10-13-23-10-20-17-28-14-28-14-28-27-18-24 5-12 5-12-20 3-25 2c-5-2-3-17-3-17s-20-5-20 0 7 5 10 15 2 27 17 30 18 7 20 14 20 8 20 8l13 7zm13 45c-2-7-5-30 5-29 10 2 3 0 15 5s13-8 13-8h18l23 19-3 15-17 2c-8-13-25-8-22 3 3 12-8 34-15 35-7 2-28 2-27-8 3-10 10-34 10-34zm274 230 12-37c-17-3-13-22-13-22-2-15-25-32-33-27s-5-35-5-35 15-10 22-5-57-84-70-76-43-8-42-24c2-15-60-66-60-66s-20-13-23-3-10 17 0 22 8-8 20 3c12 12 33 27 25 37s-18 14-18 14l12 14h18l3 29s20 10 25 22 5 19 0 25c-5 7-15 19-13 30 2 12 15 17 15 17l13 2 10 5v22c13-3 35 15 33 27s3 5 20 17 12 14 23 22c11 7 21 2 26-13zm-382 216c0 5-3 12 7 14s28-7 30 3 2 17 15 22 22 7 32 7 32-3 32-3 24 4 28 8c18 19 30 24 35 15 5-8-2-27-3-34-2-7-25-39-33-32s-10 0-25 5-47 2-48-5c-2-7-25-10-25-17s-17-15-15-5-12 15-15 12c-5-4-15 10-15 10zm-83 18-2 12 18 2s8 7 8 12 12 10 18 10c7 0 25-14 25-14s8-24 2-22c-7 2-20 12-22 2s-22-5-22-5zm-86 19 5-1 3 9-5 2zm6-16 10-2 3 15-9 2zm28 2 1 10 36-1v-10zm324-8 17-2 1 10-17 2zm44 37 5-12 9 4-5 12zm145-169 17-1 1 10-17 1zm28 10h10v8h-10zm30-142-10 1-2-15 10-1zm-10 210h10v12h-10zm22 6 9 4-5 11-9-5zm-49-133c10 0-3 39 23 35 27-3 2 12 22 13 20 2 15-15 22-27s3-19-8-22c-12-3-12-3-15-17-3-13-17-17-17-17l-5-20-22 13-22 29c0 24 12 13 22 13zm65 92c13-7 42-7 40-17s17-13 17-13l5 20 15 10 2 19s5-3-13 2-7 13-7 13l-40 2-5-17zm-215 141c8-2 28-3 32 2 3 5-12 12-12 12l-20 3c-6-8-8-15 0-17zm107-15c9 9-50 7-50 0s5-30 20-25 17-30 17-30-13 2-2-5c12-7 0-17-5-22s-10-14-10-14h23c10-7 13-39 13-39 20 7 30-7 30-7s3 10 10 19c7 8-17 12-8 17 8 5 12 20 8 25-3 5-22 2-22-5s-7 8 0 17c7 8-8 20-12 20-3 0-25 3-7 14 18 10 38 5 38 5s15-2 20 7c5 8-2 10-10 10s-48-3-48-3-10 11-5 16zm194-191c-5-7-10-12-17-15s-12-7-18-7c-7 0-13-7-10-15s-5-12-5-19 5-7 13-2 7 7 13 15c7 8 10 17 17 15s12 15 18 10c7-5 5 12 5 12zm-16 16c5 7 15 12 15 19s-3 12 7 13c10 2 17-2 20 7 3 8 3 22 2 29-2 7 2 17 10 17s10 2 10 7 10-19 10-19c-8-7-15-22-15-22s-8-24-8-27-12-7-17-8c-5-2-13-17-13-17zm108 273-7-15s0-13 3-20-7-13-12-15-3-15-5-22-13-12-13-12-3-25-3-30-15-12-10-17 8-12 13-15-5-27 3-22 8 14 12 20c3 7-2 30 7 35 8 5-2 22 12 22 13 0 5 32 5 32s-3 24 5 25c8 2 3 42 3 42zm5 129 5-10 9 5-5 10zm11-55 10 1-1 14-10-2zm-21-56-13-2-30 5-17 32s8 5 15 17 10 81-10 93 2 5 2 5l-3 37c5 17 13 8 18 0s10-10 17-19c7-8 17-24 18-35 2-12 10-30 5-35s5-29 5-29 7-14 0-27c-7-14 2-29 7-35zm-73-172h-25s8 3-15-19-38 5-38 5l-27 3v27l-13 5 2 17 18-2s0 20 5 12 47 2 43 22c-1 8 42 30 37 57 22 3 17 25 17 25l28 3 8-17 8 2v-10l-18-5-3-54-12-8 3-14-13-5 7-22zm-62 414 10-4-4-8-2-6-5 3-12 7-11-7-5 9 13 8 3 2 2-2 10-5zm44-22 18 3 2-10-18-3zm-34 216c-7-10 33-27 40-7s0 17-7 15c-6-2-23 5-33-8zm-172 325h12v32h-12zm77 309c-3 13-15 20-22 15s8 8 12 15c3 7 13 7 17 0 3-7 2-22 5-29 3-6-10-8-12-1zm37 68 15 7 2 29c20 20 85 3 85-2s-3-62-3-62l-8-8-2-42c7-22-32-54-35-47s-25 2-25 8c0 7-13 40-7 52 7 12-5 12-7 24-2 10-19 30-15 41zm-468-361-5-8-14 8 6 9zm-254 33c-8 8-6 15 0 21m52 20 11-19-9-3-12 8 5 5zm-10-527c7 15 5 37 30 54 8 6-5 17-13 12s-32-42-32-42v-22c5-13 12-8 15-2zm-88 88c4 15 3-24 10-22s2-24 2-24l-30 22c14 2 16 17 18 24zm-90 108c-2 20-27 27-27 27l-18-5-10-8-2-24 15-2 3 10zm-27-204v-24l-3-22-25-12-18 17-3 24v15l-17 3-3 46-13 5 2 17-36 10-3 22-13 8-7 20-8 49s15 29 23 15c8-13 22-15 22-15l5-12 45 2c3-19 25-12 25-3 0 8 17 2 17 2l12-19h18l2-20 8-5v-30c27-8 23-34 23-34l7-8-3-12c-13-5-7-17 2-14 8 3-12-15-12-15-10 8-18-10-18-10zm-76-69-13 3-30 29-2 13-8 12-10 25-35 2-7 30 5 26 30 12 3-17 10-5 2-17 7-12 10-12 3-13 17-10 20-4 8-10 3-20 2-15 7-11 20-8v-32h-10l-2-12-18-2-4 9h-8l-2 13h10l2 11-7 6zm-528 203c0 4-3 7-7 7s-7-3-7-7 3-7 7-7 7 3 7 7zm-1 193c0 4-3 7-7 7s-7-3-7-7 3-7 7-7 7 3 7 7zm-18-28c4 0 7-3 7-7s-3-7-7-7-7 3-7 7 3 7 7 7zm-20 40-14 2v12l14-2zm15-86-12 2-1 13 13 2zm-3-91 1-12-25 17-16-10v40l26 36 10-24 4-15-12-5 2-25zm-10-142-30-3 2 12h8c13 24 2 81 2 81s-20 2-23-8-12 22-5 27 30 0 32 19 15-12 15-12zm670-334h-18l-3-37 10-7v-19h-58l-2-19 8-5-13-5-10 13-3 15-17 3v8h-12v22l-47 39-93-3c-7 15-23-2-23-2-3-10-27 0-27 0 0 19-32-8-32-8l-58-42c-33-30-83 8-85 17 2 24-38 5-38 5s-33-10-38 3-27 10-27 10l-3 7-17 3-3 10-20 3 50-2c13-2-5 29-13 27l-23 2-8 8h-22l-10 14-32-2s-18 15-17 20c2 5-3 20-8 20s-15 15-12 20-10 22-10 22l-3 17-10 3v46l-20 14v20l-30 32 3 27-25 27 3 27-15 5-3 12-7 35 17 2c8-3 7 22 0 25s-25 10-15 17-27 5-27-5-20-19-25-15c-5 3-13-15-13-15-18-19-75 2-75 2l-8 27c-18 3-30 34-30 34-15 5-27 24-22 29s-8 7-8 7v37l-8 12 2 40c10 0 8 19 8 19-17 2-13 24-13 24l-35 12-7 10-43-2-12 12-12-12h-83l-3-8-17-3-2-19-25 2-5 10-27 2c2 17-27 42-30 35s-22-25-13-29c8-3 30-7 30-7v-12l-62-2-7 10-25 2v27l-12 3c-8 5 2 24 2 24 12 12-2 30-2 30-10 10 8 29 8 29 13 3-8 13-8 13 3 17 13 22 13 22-10 17 7 25 7 25l2 29 12 7v19l7 12h27l-2-42c-23-27 20-34 22-24s20 15 20 15c3 25 32 40 40 15s15-10 20 2 37 41 37 41h25l3 24c28-2 37 2 48 40 12 39 43 49 43 49l23-2c0-20 23 3 23 14 0 10 45 49 45 49l45 10 42 34 32-3h13c8-29 48 2 52 12 3 10 30 27 33 19s22-3 25 22 15 20 15 20l95-2 33-29 85-2c43-2 17-61 8-61-15-12 5-61 5-61l-121-113c-28 0-3-41-3-41 22-14-5-35-5-35 3-20-12-44-12-44-30-20-22-59-22-59v-27c-25-24 10-27 10-27 12-20-8-35-8-35l-2-22-27-3-3-79-60-86c-12-3-3-24-3-24 15-8-3-29-3-29l-2-37 35-3 8-13h17l-2-44c8-22 28-10 28-10l23 2 13-25 3-20-18-2c-20-12-10-56-10-56 32-47 68-20 68-20l23-2c35 24 3 67 3 67-7 10-3 42-3 42l8 54-22 19c-18 10-18 34 2 39 13 2 8 34-12 12-30 0 17 27 3 20 30 15 23-13 23-13l40-32c15-12 42 25 42 30s66 2 66 2c18 12 25 42 25 42 18-24 57-2 28 12 27 17 27 32 27 32 22-7 22 10 22 15s7-25 7-25c-25-19 33-25 17 8l-10 15 17 13 2 39c37-3 27-49 27-49l17-3c0-15 12-7 12-7-12-57 27-67 27-67 22-5 23-51 23-51-15-7-7-30 10-10s-10-41-10-41l-13-12-18-2-2-19h-30l-5 24-11 5-3-7-5 19h-30l-2-20 18-5 7-10 5-27h22l28-8c2-29 17-22 17-22l25 20 2 10-10 5-2 14 5 19h13c5-27 40-27 50-10l10-24c-23-12 0-30 6-22 7 8 22-22 22-22s12 15 0-5 8-30 8-30c-3-20 22-17 22-17l2-27-23-2c-5 24-25 3-15-2s20-15 20-15v-17l10-3 2-17h25l22-10 5-8 23-2 33-30-3-13c-20 0 0-15 0-15zm-903 1517-13-20 20 3 21 18 9 22-12 7-7-10-16-5zm-367-506 8 23 12 9 11 25-6 12-19-17-13-19-7-15-11-30zm-100-90h-8v17h13v22h10l-2-25-13-5zm1308-1028 10-2 2 10-10 2zm12-6 3-10 13 4-2 10zm24-10 1-10-11-2-2 10zm17-22h13v10h-13zm85 12 1-10 12 1-2 10zm33 7 1-10-12-2-1 10zm12 1h13v10h-13zm15 17v12l10-1v-12z"
       id="path6"
       style="fill-opacity:1.0;fill:#ffffff" />
  </g>
  <path
     style="fill:#ffffff;stroke-width:0.495663;fill-opacity:1.0"
     d="m 56.584817,77.571252 c 0.323391,-1.236476 4.849505,-15.354848 6.197148,-19.330855 4.637564,-13.682392 13.921469,-23.340402 30.232134,-31.45037 4.899141,-2.435945 15.673281,-7.211341 16.270061,-7.211341 0.13608,0 -1.92507,2.525205 -4.58033,5.611565 -2.65526,3.086361 -7.818769,9.833573 -11.474465,14.993805 -13.215542,18.654524 -14.566496,20.15606 -27.434678,30.492673 -4.154859,3.337467 -7.970548,6.421353 -8.479308,6.85307 -0.792368,0.672382 -0.897132,0.67833 -0.730562,0.04145 z"
     id="path9" />
  <path
     style="fill:#ffffff;stroke-width:0.495663;fill-opacity:1.0"
     d="m 35.198893,111.4844 c -0.359333,-7.87607 -0.497562,-16.988132 -0.311246,-20.517362 0.786621,-14.900274 3.683649,-25.284547 9.487338,-34.006954 3.723141,-5.595536 7.754616,-9.115515 13.865412,-12.106229 7.780531,-3.807908 8.29519,-3.735011 4.05989,0.575049 -6.158103,6.266806 -8.852099,12.665175 -12.28117,29.16837 -1.691047,8.138552 -3.873523,16.651762 -7.655957,29.863696 -0.928097,3.24181 -0.152489,2.9753 0.972425,-0.33414 C 45.830894,96.785755 51.705841,90.391259 65.269191,80.25354 80.19259,69.099273 84.433239,65.018813 88.277928,58.113958 l 1.447544,-2.599708 -0.321075,2.230484 C 87.228164,72.862946 76.348938,87.932146 57.032205,102.5846 c -2.60687,1.97741 -5.882951,4.62613 -7.280181,5.88604 -3.237825,2.91961 -8.811146,9.52104 -11.680654,13.83537 l -2.22606,3.3469 z"
     id="path10" />
  <path
     style="fill:#ffffff;stroke-width:0.495663;fill-opacity:1.0"
     d="m 27.752635,180.1487 c -0.009,-3.40839 -2.531248,-12.71038 -7.158436,-26.39962 -5.799605,-17.15776 -6.703714,-21.10775 -7.055424,-30.82467 -0.222514,-6.14754 -0.09155,-8.46486 0.756316,-13.3829 1.246282,-7.22901 3.359165,-13.766023 6.528699,-20.199019 3.273339,-6.643684 9.865841,-16.389118 8.769759,-12.963989 -0.166311,0.519705 -0.802674,2.506256 -1.41414,4.414559 -1.693582,5.285444 -1.597287,19.193544 0.226015,32.643939 1.626799,12.00079 1.7031,19.35654 0.350036,33.74475 -0.53681,5.70833 -0.884175,10.47062 -0.771922,10.58287 0.112252,0.11225 0.447756,-0.76637 0.745563,-1.95251 2.477632,-9.86809 5.803741,-17.565 10.463562,-24.2136 3.114252,-4.44339 11.467631,-12.84463 19.222092,-19.33223 4.232853,-3.54133 6.22807,-5.62261 8.054524,-8.40194 1.335331,-2.03199 2.427871,-3.4782 2.427871,-3.21379 0,1.58177 -3.729437,14.86969 -5.216674,18.58692 -2.927888,7.31801 -5.991422,12.31205 -17.267448,28.14861 -9.793072,13.75382 -14.138748,21.5077 -16.708987,29.81342 -1.363734,4.4069 -1.945271,5.28579 -1.951406,2.9492 z"
     id="path11" />
  <path
     style="fill:#ffffff;stroke-width:0.495663;fill-opacity:1.0"
     d="M 36.341308,237.54563 C 34.656165,235.02441 30.248272,229.28129 26.54599,224.78315 12.290453,207.46317 9.4819108,202.28914 5.2234208,185.50168 1.4182551,170.50127 1.5465611,154.30173 5.5855765,139.77695 l 1.1026624,-3.9653 0.3110662,6.44362 c 0.5118637,10.60306 2.2853343,16.48739 10.5943429,35.15173 5.540766,12.4461 7.899247,19.01865 11.438765,31.87727 1.999788,7.26498 4.536044,14.31373 4.987775,13.862 0.09611,-0.0961 -0.283741,-2.1649 -0.844115,-4.59731 -1.31415,-5.70433 -1.82717,-17.57226 -0.985217,-22.7915 1.27627,-7.91155 4.305814,-14.87981 12.378241,-28.47121 5.162812,-8.69254 7.83755,-13.97644 9.942338,-19.64094 1.713358,-4.61107 1.762726,-4.28942 0.998567,6.50587 -1.129377,15.95476 -6.105735,37.38543 -14.073438,60.60721 -1.841267,5.36636 -2.422866,10.52018 -2.195476,19.45516 0.110826,4.35479 0.193091,7.91742 0.18281,7.91696 -0.01028,-4.6e-4 -1.397447,-2.06365 -3.08259,-4.58488 z"
     id="path12" />
  <path
     style="fill:#ffffff;stroke-width:0.495663;fill-opacity:1.0"
     d="M 65.675341,292.12913 C 46.450586,279.77238 43.611911,277.88304 38.166047,273.81979 21.837345,261.63667 12.087417,249.26842 7.192174,234.52795 4.3754681,226.04633 2.9597936,217.21536 3.0078668,208.42627 l 0.025755,-4.7088 0.9051128,3.35653 c 2.8839213,10.69476 8.1024964,18.08394 25.1091234,35.55301 11.951543,12.27653 14.309786,15.01578 19.150896,22.24497 4.160666,6.21308 9.796329,13.78266 9.787848,13.14661 -0.0033,-0.24604 -1.232684,-2.88782 -2.732005,-5.87062 -7.971405,-15.85863 -9.034039,-27.93179 -4.452444,-50.58663 1.648786,-8.15285 2.403032,-13.23574 2.647835,-17.84387 l 0.342309,-6.44362 1.839624,5.4523 c 3.560892,10.5538 5.058879,19.4266 7.071162,41.88352 2.59769,28.99007 3.966354,35.71366 9.812317,48.20322 1.244119,2.65799 2.109978,4.8101 1.924124,4.78247 -0.185854,-0.0276 -4.129735,-2.48743 -8.764183,-5.46623 z"
     id="path13" />
  <path
     style="fill:#ffffff;stroke-width:0.495663;fill-opacity:1.0"
     d="m 114.49814,333.78412 c -1.77199,-0.52823 -9.13259,-2.08606 -16.356876,-3.46183 -19.843851,-3.779 -25.458756,-5.33092 -33.952912,-9.38437 -10.27593,-4.90371 -23.115736,-15.94882 -32.459865,-27.92275 -5.613398,-7.19323 -12.159677,-19.93973 -13.207774,-25.71734 -0.245173,-1.35151 0.143137,-0.96022 2.324996,2.34281 3.870865,5.85996 11.474541,13.20977 18.425279,17.81011 3.197556,2.1163 12.007965,6.97166 19.578686,10.7897 16.909736,8.52786 20.84643,10.84875 29.644175,17.47684 6.173383,4.65093 13.612721,9.26455 13.612721,8.44213 0,-0.16832 -1.90744,-2.11159 -4.238758,-4.31837 -9.338756,-8.83991 -15.260095,-19.06866 -18.730945,-32.35654 -0.712079,-2.72615 -2.406542,-10.53284 -3.765472,-17.3482 -1.358929,-6.81537 -3.263231,-15.26942 -4.231787,-18.78678 -0.968555,-3.51737 -1.673769,-6.48245 -1.567142,-6.58907 0.242201,-0.2422 6.189789,7.20647 9.969497,12.48564 7.483678,10.45258 10.130691,16.0913 16.825512,35.84206 7.556375,22.29248 11.458115,29.90939 19.790295,38.63427 1.62716,1.70384 2.64431,3.08085 2.26033,3.06001 -0.38398,-0.0208 -2.14796,-0.47008 -3.91996,-0.99832 z"
     id="path14" />
  <path
     style="fill:#ffffff;stroke-width:0.495663;fill-opacity:1.0"
     d="m 109.28975,357.63019 c -5.68546,-0.49765 -12.053457,-1.78969 -15.857284,-3.21738 -10.910895,-4.09518 -23.780757,-12.93046 -31.743387,-21.79213 -3.655816,-4.06858 -6.396742,-7.65692 -6.086018,-7.96765 0.114534,-0.11453 1.758507,0.95584 3.653273,2.37861 11.150466,8.3728 23.90324,11.64831 51.524336,13.23385 12.87152,0.73887 22.73479,1.77257 30.30937,3.17652 11.68287,2.16543 13.81352,2.09716 5.37836,-0.17234 -5.56457,-1.49716 -14.23804,-5.87585 -17.91793,-9.04563 -5.89498,-5.07782 -10.83425,-11.83268 -17.14218,-23.44337 -4.20445,-7.73892 -9.40998,-18.14866 -9.18699,-18.37165 0.2722,-0.27221 9.01043,6.60445 14.50732,11.41672 2.72615,2.38661 10.42132,9.55446 17.10038,15.92856 6.67905,6.3741 13.48203,12.59713 15.11772,13.82895 6.5888,4.96195 17.45817,9.61185 27.01363,11.55637 l 4.70879,0.95823 -2.97397,0.36621 c -1.63569,0.20142 -8.62374,1.80161 -15.529,3.55598 -26.69089,6.78118 -40.17517,8.72188 -52.87642,7.61015 z"
     id="path15" />
  <path
     style="fill:#ffffff;stroke-width:0.495663;fill-opacity:1.0"
     d="m 177.5744,393.8837 c -5.83417,-5.14463 -5.75545,-4.34987 -0.87126,-8.79599 13.61487,-12.39374 30.06052,-23.47415 44.48713,-29.97363 2.38575,-1.07482 4.60508,-1.95423 4.93185,-1.95423 0.37385,0 0.41954,-0.17183 0.12323,-0.46348 -1.0003,-0.98458 -8.81637,-1.17988 -13.03224,-0.32563 -7.40916,1.50129 -13.20526,4.58711 -26.10035,13.89574 -8.62897,6.22903 -16.72737,10.58713 -24.32884,13.09241 -20.45065,6.7401 -40.71645,4.4116 -57.14434,-6.56575 -4.66932,-3.12011 -12.454946,-9.84557 -12.454946,-10.75897 0,-0.25328 1.505577,0.29731 3.345725,1.22354 10.254951,5.16178 21.592331,7.38734 31.870751,6.25633 9.99592,-1.09992 14.87769,-2.70798 42.0276,-13.84389 23.36659,-9.58413 39.50022,-11.54068 59.0354,-7.15929 l 5.70726,1.28003 4.34785,-1.0663 c 9.45032,-2.31765 18.87407,-2.98162 28.03439,-1.97522 11.27031,1.23822 20.42752,4.02577 40.25308,12.25342 18.80745,7.80513 25.89348,9.91126 36.1834,10.75453 8.1057,0.66427 19.08648,-1.60111 27.69691,-5.71398 2.82934,-1.35147 5.27526,-2.45722 5.43536,-2.45722 0.16011,0 -0.92804,1.24562 -2.4181,2.76804 -6.58858,6.73165 -17.39689,13.41533 -25.88265,16.0054 -13.24488,4.04267 -28.10258,3.60884 -42.13783,-1.2304 -9.47965,-3.26851 -14.25292,-5.98783 -29.11253,-16.58536 -6.87178,-4.90079 -13.45075,-8.38479 -18.33953,-9.71197 -3.57139,-0.96955 -14.00098,-1.23482 -14.8579,-0.3779 -0.32569,0.3257 0.63666,0.9699 2.84585,1.90505 8.12611,3.43975 18.78338,9.61486 28.36893,16.43769 6.08012,4.32773 16.85958,13.19715 19.98251,16.44175 l 1.8908,1.96448 -4.3531,4.03548 c -2.39421,2.21951 -4.56821,4.03547 -4.83112,4.03547 -0.2629,0 -5.17717,-4.63641 -10.9206,-10.30315 -16.64025,-16.41806 -27.42686,-24.81942 -38.80619,-30.22498 l -3.58044,-1.70082 -4.10233,1.98567 c -11.07781,5.36205 -22.60175,14.40863 -39.07282,30.67314 -5.33042,5.26358 -9.84573,9.57014 -10.03403,9.57014 -0.18829,0 -2.07239,-1.52556 -4.18688,-3.39015 z"
     id="path16" />
  <path
     style="fill:#ffffff;stroke-width:0.495663;fill-opacity:1.0"
     d="m 348.94672,357.81119 c -12.44005,-1.04529 -18.11174,-2.09544 -38.41388,-7.1126 -8.72367,-2.15583 -16.97646,-4.07224 -18.33953,-4.25868 l -2.47832,-0.33898 5.20446,-1.16905 c 9.23855,-2.0752 16.29837,-4.92351 22.92515,-9.24922 4.8899,-3.19195 7.48584,-5.47159 21.11649,-18.54356 5.73417,-5.49915 12.7245,-11.97129 15.53407,-14.38254 5.52565,-4.74226 13.28675,-10.77769 13.28675,-10.33248 0,0.59159 -8.98533,18.18429 -11.66715,22.84355 -10.13094,17.60094 -18.76008,24.57688 -35.84261,28.97577 -1.18613,0.30543 -2.05425,0.65769 -1.92916,0.78278 0.23898,0.23897 8.45957,-0.99297 12.24968,-1.83574 4.49502,-0.99952 13.20628,-1.92012 25.1635,-2.65927 31.95882,-1.97558 43.7759,-4.9324 55.52016,-13.89201 1.97646,-1.50782 3.59356,-2.55897 3.59356,-2.33588 0,0.66416 -4.83299,6.55067 -8.36139,10.18404 -8.53318,8.78703 -22.13509,17.57835 -31.78731,20.54505 -6.44494,1.98092 -19.07057,3.34213 -25.77447,2.77882 z"
     id="path17" />
  <path
     style="fill:#ffffff;stroke-width:0.495663;fill-opacity:1.0"
     d="m 354.37453,331.06079 c 5.4795,-5.76849 10.25762,-13.60058 13.95349,-22.87195 0.84449,-2.11849 3.50984,-9.69187 5.92299,-16.82974 5.81088,-17.18802 7.88217,-21.71231 14.36806,-31.38388 2.49019,-3.71331 8.48005,-11.61376 11.04698,-14.57066 l 0.90521,-1.04273 -0.23503,1.23916 c -0.12926,0.68154 -1.03009,4.25031 -2.00184,7.93061 -0.97175,3.6803 -2.87626,12.26766 -4.23223,19.08302 -1.35598,6.81537 -3.27369,15.06816 -4.2616,18.33953 -3.46693,11.48051 -8.84769,20.26688 -17.53977,28.64112 -2.48539,2.3945 -4.51888,4.46986 -4.51888,4.61191 0,0.76222 7.55841,-3.90411 13.3884,-8.26559 9.23102,-6.90581 13.12713,-9.22322 28.50655,-16.95569 7.35431,-3.69761 15.26738,-7.87403 17.5846,-9.28094 10.53531,-6.39657 18.51474,-14.05897 23.21726,-22.2948 1.89244,-3.31434 1.95681,-2.81478 0.29521,2.29113 -4.50908,13.85595 -14.2421,27.65931 -27.7256,39.32043 -14.3293,12.3926 -22.52461,15.87413 -49.07063,20.84617 -5.99753,1.12333 -13.54089,2.69717 -16.76303,3.49742 -3.22214,0.80026 -5.98284,1.45501 -6.13488,1.45501 -0.15205,0 1.33059,-1.69179 3.29474,-3.75953 z"
     id="path18" />
  <path
     style="fill:#ffffff;stroke-width:0.495663;fill-opacity:1.0"
     d="m 396.75668,294.21867 c 6.42023,-12.74886 7.89226,-19.82769 10.67687,-51.34382 1.75898,-19.90807 3.40443,-29.55966 6.80247,-39.90087 l 1.87303,-5.70013 0.31918,5.70013 c 0.34405,6.14421 0.58905,7.73884 3.16033,20.57001 4.25529,21.23467 3.02879,32.9015 -5.17712,49.24655 -1.41721,2.82289 -2.48987,5.21943 -2.38367,5.32562 0.21709,0.21709 7.54256,-9.76709 10.71459,-14.60336 3.46988,-5.29037 7.80301,-10.28204 17.9152,-20.63795 11.00291,-11.26809 14.75052,-15.51833 18.22701,-20.6716 3.75087,-5.55998 6.05711,-10.6303 7.7319,-16.99879 0.6176,-2.34846 -0.19745,14.27491 -0.88736,18.09836 -2.41615,13.38997 -8.03142,25.05429 -17.09861,35.51808 -4.23086,4.88253 -12.2493,11.85399 -19.92892,17.32678 -4.96613,3.53906 -32.92162,21.49792 -33.46452,21.49792 -0.11339,0 0.57045,-1.54212 1.51962,-3.42693 z"
     id="path19" />
  <path
     style="fill:#ffffff;stroke-width:0.495663;fill-opacity:1.0"
     d="m 430.45905,231.4746 c -0.0228,-10.27492 -0.097,-11.13356 -1.2848,-14.86989 -0.69332,-2.18092 -2.54116,-7.98017 -4.10631,-12.88724 -6.91449,-21.67831 -10.72902,-40.89988 -10.66961,-53.76463 l 0.0241,-5.21926 1.38882,3.71747 c 1.90334,5.0947 5.10109,11.3104 10.19999,19.82652 8.14653,13.60623 10.99003,20.72787 12.1478,30.42455 0.31863,2.66865 0.43754,6.56169 0.26424,8.65119 -0.30854,3.72024 -1.96878,13.59783 -2.57505,15.32022 -0.21593,0.61343 -0.14565,0.72394 0.238,0.37423 0.87323,-0.79597 2.93724,-6.69994 5.08155,-14.53546 3.32049,-12.13341 5.30685,-17.61762 11.24437,-31.04501 8.51145,-19.24821 10.49618,-26.11825 10.58226,-36.62985 l 0.0452,-5.52145 0.9371,2.97397 c 1.52957,4.85429 2.87898,12.07232 3.47219,18.57291 0.94596,10.36623 -0.63169,22.36371 -4.72738,35.95002 -3.35806,11.13943 -7.24093,17.5064 -20.25265,33.20941 -2.9366,3.54399 -6.83469,8.67411 -8.66244,11.40025 l -3.32317,4.95663 z"
     id="path20" />
  <path
     style="fill:#ffffff;stroke-width:0.495663;fill-opacity:1.0"
     d="m 440.71972,178.50341 c -2.35683,-8.54161 -7.4785,-17.65798 -18.99489,-33.81022 -10.59434,-14.85902 -13.38818,-19.62441 -16.2497,-27.71673 -1.39272,-3.93858 -4.4838,-15.52786 -4.4838,-16.81095 0,-0.263416 0.76404,0.78988 1.69787,2.34065 2.55202,4.23806 3.41287,5.15134 10.94153,11.60802 16.94431,14.53166 23.32985,23.96303 27.27363,40.28284 0.49383,2.04352 0.98442,3.45584 1.0902,3.13849 0.10579,-0.31734 -0.26626,-5.49331 -0.82676,-11.50215 -1.36637,-14.64798 -1.29654,-19.57052 0.47645,-33.58896 2.23806,-17.69558 2.05068,-26.528287 -0.72832,-34.330888 -0.4278,-1.201137 -0.68303,-2.278674 -0.56718,-2.394526 0.49612,-0.496116 5.9828,8.030195 8.68748,13.500345 5.72069,11.569989 7.71134,20.726829 7.3273,33.705079 -0.30343,10.25426 -1.29096,14.58913 -7.26266,31.88018 -4.40623,12.75825 -5.75036,17.56055 -6.64012,23.72388 l -0.59564,4.12603 z"
     id="path21" />
  <path
     style="fill:#ffffff;stroke-width:0.495663;fill-opacity:1.0"
     d="m 432.26909,122.79714 c -2.01717,-3.27821 -7.91829,-10.38257 -11.26851,-13.56619 -1.32727,-1.26126 -4.6437,-4.01489 -7.36985,-6.11917 C 398.9565,91.784917 390.22075,82.217391 385.20877,71.983572 382.85338,67.17418 381.31261,62.597181 380.85751,59.057703 l -0.32816,-2.552127 2.59068,3.851273 c 4.30254,6.396108 8.79155,10.531944 21.34094,19.661925 8.7144,6.33994 13.26198,10.302989 16.51611,14.393186 2.73604,3.439004 5.7452,8.80106 6.44859,11.49081 0.16067,0.61442 0.40013,1.00914 0.53213,0.87715 0.13199,-0.132 -1.09929,-5.02932 -2.73617,-10.882944 -1.63689,-5.853621 -3.98111,-15.414462 -5.20939,-21.246313 -3.52075,-16.716434 -6.61682,-23.842528 -13.00703,-29.937758 -1.63147,-1.556162 -2.76492,-2.829386 -2.51876,-2.829386 1.11319,0 7.30817,2.64611 9.94494,4.24786 10.36685,6.297529 16.89179,17.506857 19.59948,33.670356 0.76701,4.578608 0.89832,7.874782 0.81946,20.570015 -0.0516,8.31474 -0.27469,17.37764 -0.49566,20.13978 l -0.40176,5.02206 z"
     id="path22" />
  <path
     style="fill:#ffffff;stroke-width:0.495663;fill-opacity:1.0"
     d="M 405.27727,71.617819 C 393.52883,62.042403 389.06795,57.442716 382.50455,48.136521 373.92606,35.973134 367.20957,27.114206 363.57761,23.172243 c -1.82102,-1.976456 -3.156,-3.593557 -2.96663,-3.593557 0.7761,0 14.65817,6.192807 18.57118,8.284619 12.47001,6.666211 21.5822,15.351665 25.75043,24.544517 0.79425,1.75167 2.68111,7.111283 4.19303,11.910249 1.51192,4.798965 3.19455,9.898137 3.73918,11.33149 0.54463,1.433353 0.93977,2.644471 0.87808,2.691371 -0.0617,0.0469 -3.87121,-2.978503 -8.46561,-6.723113 z"
     id="path23" />
</svg>
